<mxfile host="app.diagrams.net" modified="2022-04-09T03:54:16.768Z" agent="5.0 (Windows NT 10.0; Win64; x64) AppleWebKit/537.36 (KHTML, like Gecko) Chrome/99.0.4844.84 Safari/537.36" etag="y3V4KbnNAyuAEVGroJ3j" version="17.4.0" type="github" pages="20">
  <diagram id="DhQTcn3O0fMujIw9Bua7" name="Quy Trình Hoạt Động">
    <mxGraphModel dx="1038" dy="571" grid="1" gridSize="10" guides="1" tooltips="1" connect="1" arrows="1" fold="1" page="1" pageScale="1" pageWidth="850" pageHeight="1100" math="0" shadow="0">
      <root>
        <mxCell id="0" />
        <mxCell id="1" parent="0" />
        <mxCell id="ZwH4_uQx5eaeck5RCifh-16" style="edgeStyle=orthogonalEdgeStyle;rounded=0;orthogonalLoop=1;jettySize=auto;html=1;exitX=0.5;exitY=1;exitDx=0;exitDy=0;entryX=0.5;entryY=0;entryDx=0;entryDy=0;fontColor=#FF0000;" parent="1" source="ZwH4_uQx5eaeck5RCifh-1" target="ZwH4_uQx5eaeck5RCifh-4" edge="1">
          <mxGeometry relative="1" as="geometry" />
        </mxCell>
        <mxCell id="ZwH4_uQx5eaeck5RCifh-17" style="edgeStyle=orthogonalEdgeStyle;rounded=0;orthogonalLoop=1;jettySize=auto;html=1;entryX=0.5;entryY=0;entryDx=0;entryDy=0;fontColor=#FF0000;" parent="1" source="ZwH4_uQx5eaeck5RCifh-1" target="ZwH4_uQx5eaeck5RCifh-7" edge="1">
          <mxGeometry relative="1" as="geometry" />
        </mxCell>
        <mxCell id="ZwH4_uQx5eaeck5RCifh-1" value="" style="rounded=0;whiteSpace=wrap;html=1;" parent="1" vertex="1">
          <mxGeometry x="280" y="120" width="120" height="60" as="geometry" />
        </mxCell>
        <mxCell id="ZwH4_uQx5eaeck5RCifh-3" value="Trường Đại Học" style="text;html=1;strokeColor=none;fillColor=none;align=center;verticalAlign=middle;whiteSpace=wrap;rounded=0;" parent="1" vertex="1">
          <mxGeometry x="290" y="135" width="100" height="30" as="geometry" />
        </mxCell>
        <mxCell id="ZwH4_uQx5eaeck5RCifh-4" value="" style="rounded=0;whiteSpace=wrap;html=1;" parent="1" vertex="1">
          <mxGeometry x="160" y="220" width="120" height="60" as="geometry" />
        </mxCell>
        <mxCell id="ZwH4_uQx5eaeck5RCifh-5" value="Ban Giám Hiệu" style="text;html=1;strokeColor=none;fillColor=none;align=center;verticalAlign=middle;whiteSpace=wrap;rounded=0;" parent="1" vertex="1">
          <mxGeometry x="180" y="235" width="80" height="30" as="geometry" />
        </mxCell>
        <mxCell id="ZwH4_uQx5eaeck5RCifh-19" style="edgeStyle=orthogonalEdgeStyle;rounded=0;orthogonalLoop=1;jettySize=auto;html=1;entryX=0.5;entryY=0;entryDx=0;entryDy=0;fontColor=#FF0000;" parent="1" source="ZwH4_uQx5eaeck5RCifh-7" target="ZwH4_uQx5eaeck5RCifh-9" edge="1">
          <mxGeometry relative="1" as="geometry" />
        </mxCell>
        <mxCell id="ZwH4_uQx5eaeck5RCifh-20" style="edgeStyle=orthogonalEdgeStyle;rounded=0;orthogonalLoop=1;jettySize=auto;html=1;exitX=0.5;exitY=1;exitDx=0;exitDy=0;fontColor=#FF0000;" parent="1" source="ZwH4_uQx5eaeck5RCifh-7" target="ZwH4_uQx5eaeck5RCifh-11" edge="1">
          <mxGeometry relative="1" as="geometry" />
        </mxCell>
        <mxCell id="ZwH4_uQx5eaeck5RCifh-21" style="edgeStyle=orthogonalEdgeStyle;rounded=0;orthogonalLoop=1;jettySize=auto;html=1;exitX=0.5;exitY=1;exitDx=0;exitDy=0;entryX=0.5;entryY=0;entryDx=0;entryDy=0;fontColor=#FF0000;" parent="1" source="ZwH4_uQx5eaeck5RCifh-7" target="ZwH4_uQx5eaeck5RCifh-13" edge="1">
          <mxGeometry relative="1" as="geometry" />
        </mxCell>
        <mxCell id="ZwH4_uQx5eaeck5RCifh-7" value="" style="rounded=0;whiteSpace=wrap;html=1;" parent="1" vertex="1">
          <mxGeometry x="400" y="220" width="120" height="60" as="geometry" />
        </mxCell>
        <mxCell id="ZwH4_uQx5eaeck5RCifh-8" value="Các Khoa, Viện" style="text;html=1;strokeColor=none;fillColor=none;align=center;verticalAlign=middle;whiteSpace=wrap;rounded=0;" parent="1" vertex="1">
          <mxGeometry x="430" y="235" width="60" height="30" as="geometry" />
        </mxCell>
        <mxCell id="ZwH4_uQx5eaeck5RCifh-9" value="" style="rounded=0;whiteSpace=wrap;html=1;" parent="1" vertex="1">
          <mxGeometry x="400" y="320" width="120" height="60" as="geometry" />
        </mxCell>
        <mxCell id="ZwH4_uQx5eaeck5RCifh-10" value="&lt;font color=&quot;#ff0000&quot;&gt;Sinh Viên&lt;/font&gt;" style="text;html=1;strokeColor=none;fillColor=none;align=center;verticalAlign=middle;whiteSpace=wrap;rounded=0;" parent="1" vertex="1">
          <mxGeometry x="430" y="335" width="60" height="30" as="geometry" />
        </mxCell>
        <mxCell id="ZwH4_uQx5eaeck5RCifh-11" value="" style="rounded=0;whiteSpace=wrap;html=1;" parent="1" vertex="1">
          <mxGeometry x="260" y="320" width="120" height="60" as="geometry" />
        </mxCell>
        <mxCell id="ZwH4_uQx5eaeck5RCifh-12" value="&lt;font color=&quot;#ff0000&quot;&gt;Giảng Viên&lt;/font&gt;" style="text;html=1;strokeColor=none;fillColor=none;align=center;verticalAlign=middle;whiteSpace=wrap;rounded=0;" parent="1" vertex="1">
          <mxGeometry x="285" y="335" width="70" height="30" as="geometry" />
        </mxCell>
        <mxCell id="ZwH4_uQx5eaeck5RCifh-13" value="" style="rounded=0;whiteSpace=wrap;html=1;" parent="1" vertex="1">
          <mxGeometry x="550" y="320" width="120" height="60" as="geometry" />
        </mxCell>
        <mxCell id="ZwH4_uQx5eaeck5RCifh-14" value="&lt;font color=&quot;#ff0000&quot;&gt;Giáo Vụ&lt;/font&gt;" style="text;html=1;strokeColor=none;fillColor=none;align=center;verticalAlign=middle;whiteSpace=wrap;rounded=0;" parent="1" vertex="1">
          <mxGeometry x="580" y="335" width="60" height="30" as="geometry" />
        </mxCell>
      </root>
    </mxGraphModel>
  </diagram>
  <diagram id="mt-2seCCg3OZbWhdFX-X" name="UseCase Tổng Quan">
    <mxGraphModel dx="1742" dy="952" grid="1" gridSize="10" guides="1" tooltips="1" connect="1" arrows="1" fold="1" page="1" pageScale="1" pageWidth="850" pageHeight="1100" math="0" shadow="0">
      <root>
        <mxCell id="0" />
        <mxCell id="1" parent="0" />
        <mxCell id="wYlMMJ_67k3bO8wawhsj-1" value="&lt;font color=&quot;#000000&quot;&gt;UC Tổng quát&lt;/font&gt;" style="shape=umlFrame;whiteSpace=wrap;html=1;fontColor=#FF0000;" vertex="1" parent="1">
          <mxGeometry x="20" y="10" width="1059" height="980" as="geometry" />
        </mxCell>
        <mxCell id="wYlMMJ_67k3bO8wawhsj-64" style="edgeStyle=orthogonalEdgeStyle;rounded=0;orthogonalLoop=1;jettySize=auto;html=1;entryX=0.5;entryY=0.5;entryDx=0;entryDy=0;entryPerimeter=0;fontColor=#000000;endArrow=classic;endFill=1;" edge="1" parent="1" source="wYlMMJ_67k3bO8wawhsj-2" target="wYlMMJ_67k3bO8wawhsj-23">
          <mxGeometry relative="1" as="geometry">
            <Array as="points">
              <mxPoint x="80" y="90" />
              <mxPoint x="80" y="840" />
            </Array>
          </mxGeometry>
        </mxCell>
        <mxCell id="wYlMMJ_67k3bO8wawhsj-2" value="&lt;font color=&quot;#000000&quot;&gt;Sinh Viên&lt;/font&gt;" style="shape=umlActor;verticalLabelPosition=bottom;verticalAlign=top;html=1;fontColor=#FF0000;strokeColor=#000000;" vertex="1" parent="1">
          <mxGeometry x="545" y="60" width="30" height="60" as="geometry" />
        </mxCell>
        <mxCell id="wYlMMJ_67k3bO8wawhsj-5" value="" style="rounded=0;whiteSpace=wrap;html=1;fillColor=#f5f5f5;strokeColor=#666666;fontColor=#333333;" vertex="1" parent="1">
          <mxGeometry x="241" y="160" width="679" height="630" as="geometry" />
        </mxCell>
        <mxCell id="wYlMMJ_67k3bO8wawhsj-6" value="&lt;font color=&quot;#000000&quot;&gt;Đăng ký nguyện vọng thực tập&lt;/font&gt;" style="ellipse;whiteSpace=wrap;html=1;fontColor=#FF0000;" vertex="1" parent="1">
          <mxGeometry x="311" y="190" width="100" height="70" as="geometry" />
        </mxCell>
        <mxCell id="wYlMMJ_67k3bO8wawhsj-7" value="&lt;font color=&quot;#000000&quot;&gt;Báo cáo tiến độ&lt;/font&gt;" style="ellipse;whiteSpace=wrap;html=1;fontColor=#FF0000;" vertex="1" parent="1">
          <mxGeometry x="590" y="190" width="100" height="70" as="geometry" />
        </mxCell>
        <mxCell id="wYlMMJ_67k3bO8wawhsj-8" value="&lt;font color=&quot;#000000&quot;&gt;CRUD Học phần&lt;/font&gt;" style="ellipse;whiteSpace=wrap;html=1;fontColor=#FF0000;" vertex="1" parent="1">
          <mxGeometry x="750" y="190" width="100" height="70" as="geometry" />
        </mxCell>
        <mxCell id="wYlMMJ_67k3bO8wawhsj-9" value="&lt;font color=&quot;#000000&quot;&gt;Phân công thực tập&lt;/font&gt;" style="ellipse;whiteSpace=wrap;html=1;fontColor=#FF0000;" vertex="1" parent="1">
          <mxGeometry x="710" y="280" width="100" height="70" as="geometry" />
        </mxCell>
        <mxCell id="wYlMMJ_67k3bO8wawhsj-10" value="&lt;font color=&quot;#000000&quot;&gt;CRUD Giảng viên&lt;/font&gt;" style="ellipse;whiteSpace=wrap;html=1;fontColor=#FF0000;" vertex="1" parent="1">
          <mxGeometry x="540" y="310" width="100" height="70" as="geometry" />
        </mxCell>
        <mxCell id="wYlMMJ_67k3bO8wawhsj-11" value="&lt;font color=&quot;#000000&quot;&gt;CRUD Sinh viên&lt;/font&gt;" style="ellipse;whiteSpace=wrap;html=1;fontColor=#FF0000;" vertex="1" parent="1">
          <mxGeometry x="460" y="439" width="100" height="70" as="geometry" />
        </mxCell>
        <mxCell id="wYlMMJ_67k3bO8wawhsj-12" value="&lt;font color=&quot;#000000&quot;&gt;Hướng dẫn thực tập&lt;/font&gt;" style="ellipse;whiteSpace=wrap;html=1;fontColor=#FF0000;" vertex="1" parent="1">
          <mxGeometry x="270" y="280" width="100" height="70" as="geometry" />
        </mxCell>
        <mxCell id="wYlMMJ_67k3bO8wawhsj-13" value="&lt;font color=&quot;#000000&quot;&gt;CRUD Nhóm thực tập&lt;/font&gt;" style="ellipse;whiteSpace=wrap;html=1;fontColor=#FF0000;" vertex="1" parent="1">
          <mxGeometry x="510" y="520" width="100" height="70" as="geometry" />
        </mxCell>
        <mxCell id="wYlMMJ_67k3bO8wawhsj-14" value="&lt;font color=&quot;#000000&quot;&gt;Đánh giá quá trình thực tập&lt;/font&gt;" style="ellipse;whiteSpace=wrap;html=1;fontColor=#FF0000;" vertex="1" parent="1">
          <mxGeometry x="280" y="570" width="100" height="70" as="geometry" />
        </mxCell>
        <mxCell id="wYlMMJ_67k3bO8wawhsj-15" value="&lt;font color=&quot;#000000&quot;&gt;CRUD Tin Tức&lt;/font&gt;" style="ellipse;whiteSpace=wrap;html=1;fontColor=#FF0000;" vertex="1" parent="1">
          <mxGeometry x="710" y="530" width="100" height="70" as="geometry" />
        </mxCell>
        <mxCell id="wYlMMJ_67k3bO8wawhsj-16" value="&lt;font color=&quot;#000000&quot;&gt;Thống kê&lt;/font&gt;" style="ellipse;whiteSpace=wrap;html=1;fontColor=#FF0000;" vertex="1" parent="1">
          <mxGeometry x="800" y="580" width="100" height="70" as="geometry" />
        </mxCell>
        <mxCell id="wYlMMJ_67k3bO8wawhsj-17" value="&lt;font color=&quot;#000000&quot;&gt;Đăng nhập&lt;/font&gt;" style="ellipse;whiteSpace=wrap;html=1;fontColor=#FF0000;" vertex="1" parent="1">
          <mxGeometry x="360" y="670" width="100" height="70" as="geometry" />
        </mxCell>
        <mxCell id="wYlMMJ_67k3bO8wawhsj-18" value="&lt;font color=&quot;#000000&quot;&gt;Đăng Xuất&lt;/font&gt;" style="ellipse;whiteSpace=wrap;html=1;fontColor=#FF0000;" vertex="1" parent="1">
          <mxGeometry x="650" y="670" width="100" height="70" as="geometry" />
        </mxCell>
        <mxCell id="wYlMMJ_67k3bO8wawhsj-19" value="&lt;font color=&quot;#000000&quot;&gt;Chỉnh sửa thông tin tài khoản&lt;/font&gt;" style="ellipse;whiteSpace=wrap;html=1;fontColor=#FF0000;" vertex="1" parent="1">
          <mxGeometry x="510" y="670" width="100" height="70" as="geometry" />
        </mxCell>
        <mxCell id="wYlMMJ_67k3bO8wawhsj-21" value="&lt;font color=&quot;#000000&quot;&gt;Giảng viên&lt;/font&gt;&lt;span style=&quot;color: rgba(0 , 0 , 0 , 0) ; font-family: monospace ; font-size: 0px&quot;&gt;%3CmxGraphModel%3E%3Croot%3E%3CmxCell%20id%3D%220%22%2F%3E%3CmxCell%20id%3D%221%22%20parent%3D%220%22%2F%3E%3CmxCell%20id%3D%222%22%20value%3D%22%26lt%3Bfont%20color%3D%26quot%3B%23000000%26quot%3B%26gt%3BSinh%20Vi%C3%AAn%26lt%3B%2Ffont%26gt%3B%22%20style%3D%22shape%3DumlActor%3BverticalLabelPosition%3Dbottom%3BverticalAlign%3Dtop%3Bhtml%3D1%3BfontColor%3D%23FF0000%3BstrokeColor%3D%23000000%3B%22%20vertex%3D%221%22%20parent%3D%221%22%3E%3CmxGeometry%20x%3D%22560%22%20y%3D%2280%22%20width%3D%2230%22%20height%3D%2260%22%20as%3D%22geometry%22%2F%3E%3C%2FmxCell%3E%3C%2Froot%3E%3C%2FmxGraphModel%3E&lt;/span&gt;" style="shape=umlActor;verticalLabelPosition=bottom;verticalAlign=top;html=1;fontColor=#FF0000;strokeColor=#000000;" vertex="1" parent="1">
          <mxGeometry x="150" y="420" width="30" height="60" as="geometry" />
        </mxCell>
        <mxCell id="wYlMMJ_67k3bO8wawhsj-65" style="edgeStyle=orthogonalEdgeStyle;rounded=0;orthogonalLoop=1;jettySize=auto;html=1;entryX=0.5;entryY=0.5;entryDx=0;entryDy=0;entryPerimeter=0;fontColor=#000000;endArrow=classic;endFill=1;" edge="1" parent="1" source="wYlMMJ_67k3bO8wawhsj-22" target="wYlMMJ_67k3bO8wawhsj-23">
          <mxGeometry relative="1" as="geometry">
            <Array as="points">
              <mxPoint x="1060" y="420" />
              <mxPoint x="1060" y="840" />
            </Array>
          </mxGeometry>
        </mxCell>
        <mxCell id="wYlMMJ_67k3bO8wawhsj-22" value="&lt;font color=&quot;#000000&quot;&gt;Cán Bộ Giáo Vụ&lt;/font&gt;" style="shape=umlActor;verticalLabelPosition=bottom;verticalAlign=top;html=1;fontColor=#FF0000;strokeColor=#000000;" vertex="1" parent="1">
          <mxGeometry x="1000" y="390" width="30" height="60" as="geometry" />
        </mxCell>
        <mxCell id="wYlMMJ_67k3bO8wawhsj-23" value="&lt;font color=&quot;#000000&quot;&gt;Người dùng&lt;/font&gt;" style="shape=umlActor;verticalLabelPosition=bottom;verticalAlign=top;html=1;fontColor=#FF0000;strokeColor=#000000;" vertex="1" parent="1">
          <mxGeometry x="545" y="810" width="30" height="60" as="geometry" />
        </mxCell>
        <mxCell id="wYlMMJ_67k3bO8wawhsj-34" value="" style="endArrow=none;html=1;rounded=0;fontColor=#000000;entryX=0.25;entryY=0.1;entryDx=0;entryDy=0;entryPerimeter=0;exitX=0.5;exitY=1;exitDx=0;exitDy=0;" edge="1" parent="1" source="wYlMMJ_67k3bO8wawhsj-17" target="wYlMMJ_67k3bO8wawhsj-23">
          <mxGeometry width="50" height="50" relative="1" as="geometry">
            <mxPoint x="460" y="720" as="sourcePoint" />
            <mxPoint x="510" y="670" as="targetPoint" />
          </mxGeometry>
        </mxCell>
        <mxCell id="wYlMMJ_67k3bO8wawhsj-35" value="" style="endArrow=none;html=1;rounded=0;fontColor=#000000;entryX=0.5;entryY=0;entryDx=0;entryDy=0;entryPerimeter=0;exitX=0.5;exitY=1;exitDx=0;exitDy=0;" edge="1" parent="1" source="wYlMMJ_67k3bO8wawhsj-19" target="wYlMMJ_67k3bO8wawhsj-23">
          <mxGeometry width="50" height="50" relative="1" as="geometry">
            <mxPoint x="390" y="750" as="sourcePoint" />
            <mxPoint x="562.5" y="826.0000000000002" as="targetPoint" />
          </mxGeometry>
        </mxCell>
        <mxCell id="wYlMMJ_67k3bO8wawhsj-36" value="" style="endArrow=none;html=1;rounded=0;fontColor=#000000;entryX=0.75;entryY=0.1;entryDx=0;entryDy=0;entryPerimeter=0;exitX=0.5;exitY=1;exitDx=0;exitDy=0;" edge="1" parent="1" source="wYlMMJ_67k3bO8wawhsj-18" target="wYlMMJ_67k3bO8wawhsj-23">
          <mxGeometry width="50" height="50" relative="1" as="geometry">
            <mxPoint x="400" y="760" as="sourcePoint" />
            <mxPoint x="572.5" y="836.0000000000002" as="targetPoint" />
          </mxGeometry>
        </mxCell>
        <mxCell id="wYlMMJ_67k3bO8wawhsj-37" value="" style="endArrow=none;html=1;rounded=0;fontColor=#000000;entryX=0;entryY=1;entryDx=0;entryDy=0;entryPerimeter=0;exitX=0.5;exitY=0;exitDx=0;exitDy=0;" edge="1" parent="1" source="wYlMMJ_67k3bO8wawhsj-6" target="wYlMMJ_67k3bO8wawhsj-2">
          <mxGeometry width="50" height="50" relative="1" as="geometry">
            <mxPoint x="360" y="240" as="sourcePoint" />
            <mxPoint x="410" y="190" as="targetPoint" />
          </mxGeometry>
        </mxCell>
        <mxCell id="wYlMMJ_67k3bO8wawhsj-38" value="" style="endArrow=none;html=1;rounded=0;fontColor=#000000;exitX=0.5;exitY=0;exitDx=0;exitDy=0;" edge="1" parent="1" source="wYlMMJ_67k3bO8wawhsj-11" target="wYlMMJ_67k3bO8wawhsj-2">
          <mxGeometry width="50" height="50" relative="1" as="geometry">
            <mxPoint x="360" y="240" as="sourcePoint" />
            <mxPoint x="410" y="190" as="targetPoint" />
          </mxGeometry>
        </mxCell>
        <mxCell id="wYlMMJ_67k3bO8wawhsj-40" value="" style="endArrow=none;html=1;rounded=0;fontColor=#000000;entryX=0.5;entryY=0;entryDx=0;entryDy=0;" edge="1" parent="1" source="wYlMMJ_67k3bO8wawhsj-2" target="wYlMMJ_67k3bO8wawhsj-10">
          <mxGeometry width="50" height="50" relative="1" as="geometry">
            <mxPoint x="360" y="240" as="sourcePoint" />
            <mxPoint x="410" y="190" as="targetPoint" />
          </mxGeometry>
        </mxCell>
        <mxCell id="wYlMMJ_67k3bO8wawhsj-41" value="" style="endArrow=none;html=1;rounded=0;fontColor=#000000;entryX=0.5;entryY=0;entryDx=0;entryDy=0;exitX=1;exitY=1;exitDx=0;exitDy=0;exitPerimeter=0;" edge="1" parent="1" source="wYlMMJ_67k3bO8wawhsj-2" target="wYlMMJ_67k3bO8wawhsj-7">
          <mxGeometry width="50" height="50" relative="1" as="geometry">
            <mxPoint x="360" y="240" as="sourcePoint" />
            <mxPoint x="410" y="190" as="targetPoint" />
          </mxGeometry>
        </mxCell>
        <mxCell id="wYlMMJ_67k3bO8wawhsj-44" value="" style="endArrow=none;html=1;rounded=0;fontColor=#000000;entryX=0;entryY=0.3333333333333333;entryDx=0;entryDy=0;entryPerimeter=0;exitX=1;exitY=0.5;exitDx=0;exitDy=0;" edge="1" parent="1" source="wYlMMJ_67k3bO8wawhsj-8" target="wYlMMJ_67k3bO8wawhsj-22">
          <mxGeometry width="50" height="50" relative="1" as="geometry">
            <mxPoint x="360" y="390" as="sourcePoint" />
            <mxPoint x="410" y="340" as="targetPoint" />
          </mxGeometry>
        </mxCell>
        <mxCell id="wYlMMJ_67k3bO8wawhsj-45" value="" style="endArrow=none;html=1;rounded=0;fontColor=#000000;entryX=1;entryY=0.5;entryDx=0;entryDy=0;exitX=0;exitY=0.3333333333333333;exitDx=0;exitDy=0;exitPerimeter=0;" edge="1" parent="1" source="wYlMMJ_67k3bO8wawhsj-22" target="wYlMMJ_67k3bO8wawhsj-9">
          <mxGeometry width="50" height="50" relative="1" as="geometry">
            <mxPoint x="360" y="390" as="sourcePoint" />
            <mxPoint x="410" y="340" as="targetPoint" />
          </mxGeometry>
        </mxCell>
        <mxCell id="wYlMMJ_67k3bO8wawhsj-46" value="" style="endArrow=none;html=1;rounded=0;fontColor=#000000;entryX=0;entryY=0.3333333333333333;entryDx=0;entryDy=0;entryPerimeter=0;exitX=1;exitY=0.5;exitDx=0;exitDy=0;" edge="1" parent="1" source="wYlMMJ_67k3bO8wawhsj-10" target="wYlMMJ_67k3bO8wawhsj-22">
          <mxGeometry width="50" height="50" relative="1" as="geometry">
            <mxPoint x="360" y="530" as="sourcePoint" />
            <mxPoint x="410" y="480" as="targetPoint" />
          </mxGeometry>
        </mxCell>
        <mxCell id="wYlMMJ_67k3bO8wawhsj-47" value="" style="endArrow=none;html=1;rounded=0;fontColor=#000000;entryX=0;entryY=0.3333333333333333;entryDx=0;entryDy=0;entryPerimeter=0;exitX=1;exitY=0.5;exitDx=0;exitDy=0;" edge="1" parent="1" source="wYlMMJ_67k3bO8wawhsj-13" target="wYlMMJ_67k3bO8wawhsj-22">
          <mxGeometry width="50" height="50" relative="1" as="geometry">
            <mxPoint x="360" y="530" as="sourcePoint" />
            <mxPoint x="410" y="480" as="targetPoint" />
          </mxGeometry>
        </mxCell>
        <mxCell id="wYlMMJ_67k3bO8wawhsj-48" value="" style="endArrow=none;html=1;rounded=0;fontColor=#000000;exitX=1;exitY=0;exitDx=0;exitDy=0;" edge="1" parent="1" source="wYlMMJ_67k3bO8wawhsj-15">
          <mxGeometry width="50" height="50" relative="1" as="geometry">
            <mxPoint x="360" y="530" as="sourcePoint" />
            <mxPoint x="1000" y="410" as="targetPoint" />
          </mxGeometry>
        </mxCell>
        <mxCell id="wYlMMJ_67k3bO8wawhsj-49" value="" style="endArrow=none;html=1;rounded=0;fontColor=#000000;exitX=0.5;exitY=0;exitDx=0;exitDy=0;" edge="1" parent="1" source="wYlMMJ_67k3bO8wawhsj-16">
          <mxGeometry width="50" height="50" relative="1" as="geometry">
            <mxPoint x="360" y="530" as="sourcePoint" />
            <mxPoint x="1000" y="410" as="targetPoint" />
          </mxGeometry>
        </mxCell>
        <mxCell id="wYlMMJ_67k3bO8wawhsj-50" value="" style="endArrow=none;html=1;rounded=0;fontColor=#000000;entryX=0;entryY=0.3333333333333333;entryDx=0;entryDy=0;entryPerimeter=0;exitX=1;exitY=0.5;exitDx=0;exitDy=0;" edge="1" parent="1" source="wYlMMJ_67k3bO8wawhsj-11" target="wYlMMJ_67k3bO8wawhsj-22">
          <mxGeometry width="50" height="50" relative="1" as="geometry">
            <mxPoint x="360" y="530" as="sourcePoint" />
            <mxPoint x="410" y="480" as="targetPoint" />
          </mxGeometry>
        </mxCell>
        <mxCell id="wYlMMJ_67k3bO8wawhsj-51" value="" style="endArrow=none;html=1;rounded=0;fontColor=#000000;entryX=0.5;entryY=0.5;entryDx=0;entryDy=0;entryPerimeter=0;" edge="1" parent="1" source="wYlMMJ_67k3bO8wawhsj-14" target="wYlMMJ_67k3bO8wawhsj-21">
          <mxGeometry width="50" height="50" relative="1" as="geometry">
            <mxPoint x="270" y="490" as="sourcePoint" />
            <mxPoint x="410" y="480" as="targetPoint" />
          </mxGeometry>
        </mxCell>
        <mxCell id="wYlMMJ_67k3bO8wawhsj-52" value="" style="endArrow=none;html=1;rounded=0;fontColor=#000000;entryX=0;entryY=0.5;entryDx=0;entryDy=0;exitX=0.5;exitY=0.5;exitDx=0;exitDy=0;exitPerimeter=0;" edge="1" parent="1" source="wYlMMJ_67k3bO8wawhsj-21" target="wYlMMJ_67k3bO8wawhsj-12">
          <mxGeometry width="50" height="50" relative="1" as="geometry">
            <mxPoint x="360" y="530" as="sourcePoint" />
            <mxPoint x="410" y="480" as="targetPoint" />
          </mxGeometry>
        </mxCell>
        <mxCell id="wYlMMJ_67k3bO8wawhsj-53" value="" style="endArrow=none;html=1;rounded=0;fontColor=#000000;entryX=0;entryY=0.5;entryDx=0;entryDy=0;exitX=0.5;exitY=0.5;exitDx=0;exitDy=0;exitPerimeter=0;" edge="1" parent="1" source="wYlMMJ_67k3bO8wawhsj-21" target="wYlMMJ_67k3bO8wawhsj-10">
          <mxGeometry width="50" height="50" relative="1" as="geometry">
            <mxPoint x="360" y="530" as="sourcePoint" />
            <mxPoint x="410" y="480" as="targetPoint" />
          </mxGeometry>
        </mxCell>
        <mxCell id="wYlMMJ_67k3bO8wawhsj-54" value="" style="endArrow=none;html=1;rounded=0;fontColor=#000000;exitX=0;exitY=0.5;exitDx=0;exitDy=0;" edge="1" parent="1" source="wYlMMJ_67k3bO8wawhsj-13">
          <mxGeometry width="50" height="50" relative="1" as="geometry">
            <mxPoint x="360" y="530" as="sourcePoint" />
            <mxPoint x="165" y="450" as="targetPoint" />
            <Array as="points" />
          </mxGeometry>
        </mxCell>
        <mxCell id="wYlMMJ_67k3bO8wawhsj-55" value="" style="endArrow=none;html=1;rounded=0;fontColor=#000000;entryX=0;entryY=0.5;entryDx=0;entryDy=0;" edge="1" parent="1" target="wYlMMJ_67k3bO8wawhsj-11">
          <mxGeometry width="50" height="50" relative="1" as="geometry">
            <mxPoint x="170" y="450" as="sourcePoint" />
            <mxPoint x="410" y="480" as="targetPoint" />
          </mxGeometry>
        </mxCell>
        <mxCell id="wYlMMJ_67k3bO8wawhsj-67" value="" style="endArrow=none;html=1;rounded=0;fontColor=#000000;exitX=0.5;exitY=0.5;exitDx=0;exitDy=0;exitPerimeter=0;" edge="1" parent="1" source="wYlMMJ_67k3bO8wawhsj-21">
          <mxGeometry width="50" height="50" relative="1" as="geometry">
            <mxPoint x="150" y="440" as="sourcePoint" />
            <mxPoint x="80" y="450" as="targetPoint" />
          </mxGeometry>
        </mxCell>
      </root>
    </mxGraphModel>
  </diagram>
  <diagram id="uTUtYD9GYpjx-Kheu_Ql" name="UC  Học phần">
    <mxGraphModel dx="1045" dy="571" grid="1" gridSize="10" guides="1" tooltips="1" connect="1" arrows="1" fold="1" page="1" pageScale="1" pageWidth="850" pageHeight="1100" math="0" shadow="0">
      <root>
        <mxCell id="0" />
        <mxCell id="1" parent="0" />
        <mxCell id="E0U4lTvcsHB6LOfYojCR-1" value="UC Quản lý học phần" style="shape=umlFrame;whiteSpace=wrap;html=1;fontColor=#000000;strokeColor=#000000;fontSize=11;" vertex="1" parent="1">
          <mxGeometry x="140" y="260" width="470" height="440" as="geometry" />
        </mxCell>
        <mxCell id="E0U4lTvcsHB6LOfYojCR-2" value="Cán bộ giáo vụ" style="shape=umlActor;verticalLabelPosition=bottom;verticalAlign=top;html=1;fontSize=11;fontColor=#000000;strokeColor=#000000;" vertex="1" parent="1">
          <mxGeometry x="170" y="410" width="30" height="60" as="geometry" />
        </mxCell>
        <mxCell id="E0U4lTvcsHB6LOfYojCR-3" value="Tạo học phần" style="ellipse;whiteSpace=wrap;html=1;fontSize=11;fontColor=#000000;strokeColor=#000000;" vertex="1" parent="1">
          <mxGeometry x="280" y="320" width="110" height="50" as="geometry" />
        </mxCell>
        <mxCell id="E0U4lTvcsHB6LOfYojCR-4" value="Chỉnh sửa thông tin học phần" style="ellipse;whiteSpace=wrap;html=1;fontSize=11;fontColor=#000000;strokeColor=#000000;" vertex="1" parent="1">
          <mxGeometry x="280" y="400" width="110" height="50" as="geometry" />
        </mxCell>
        <mxCell id="E0U4lTvcsHB6LOfYojCR-5" value="Xóa học phần" style="ellipse;whiteSpace=wrap;html=1;fontSize=11;fontColor=#000000;strokeColor=#000000;" vertex="1" parent="1">
          <mxGeometry x="280" y="480" width="110" height="50" as="geometry" />
        </mxCell>
        <mxCell id="E0U4lTvcsHB6LOfYojCR-6" value="Xem thông tin học phần" style="ellipse;whiteSpace=wrap;html=1;fontSize=11;fontColor=#000000;strokeColor=#000000;" vertex="1" parent="1">
          <mxGeometry x="280" y="560" width="110" height="50" as="geometry" />
        </mxCell>
        <mxCell id="E0U4lTvcsHB6LOfYojCR-7" value="" style="endArrow=none;html=1;rounded=0;fontSize=11;fontColor=#000000;entryX=0;entryY=0.5;entryDx=0;entryDy=0;exitX=0.5;exitY=0.5;exitDx=0;exitDy=0;exitPerimeter=0;" edge="1" parent="1" source="E0U4lTvcsHB6LOfYojCR-2" target="E0U4lTvcsHB6LOfYojCR-3">
          <mxGeometry width="50" height="50" relative="1" as="geometry">
            <mxPoint x="400" y="490" as="sourcePoint" />
            <mxPoint x="450" y="440" as="targetPoint" />
          </mxGeometry>
        </mxCell>
        <mxCell id="E0U4lTvcsHB6LOfYojCR-8" value="" style="endArrow=none;html=1;rounded=0;fontSize=11;fontColor=#000000;entryX=0;entryY=0.5;entryDx=0;entryDy=0;exitX=0.5;exitY=0.5;exitDx=0;exitDy=0;exitPerimeter=0;" edge="1" parent="1" source="E0U4lTvcsHB6LOfYojCR-2" target="E0U4lTvcsHB6LOfYojCR-4">
          <mxGeometry width="50" height="50" relative="1" as="geometry">
            <mxPoint x="205" y="440" as="sourcePoint" />
            <mxPoint x="290" y="355" as="targetPoint" />
          </mxGeometry>
        </mxCell>
        <mxCell id="E0U4lTvcsHB6LOfYojCR-9" value="" style="endArrow=none;html=1;rounded=0;fontSize=11;fontColor=#000000;entryX=0;entryY=0.5;entryDx=0;entryDy=0;exitX=0.5;exitY=0.5;exitDx=0;exitDy=0;exitPerimeter=0;" edge="1" parent="1" source="E0U4lTvcsHB6LOfYojCR-2" target="E0U4lTvcsHB6LOfYojCR-5">
          <mxGeometry width="50" height="50" relative="1" as="geometry">
            <mxPoint x="215" y="450" as="sourcePoint" />
            <mxPoint x="300" y="365" as="targetPoint" />
          </mxGeometry>
        </mxCell>
        <mxCell id="E0U4lTvcsHB6LOfYojCR-10" value="" style="endArrow=none;html=1;rounded=0;fontSize=11;fontColor=#000000;entryX=0;entryY=0.5;entryDx=0;entryDy=0;exitX=0.5;exitY=0.5;exitDx=0;exitDy=0;exitPerimeter=0;" edge="1" parent="1" source="E0U4lTvcsHB6LOfYojCR-2" target="E0U4lTvcsHB6LOfYojCR-6">
          <mxGeometry width="50" height="50" relative="1" as="geometry">
            <mxPoint x="200" y="440" as="sourcePoint" />
            <mxPoint x="310" y="375" as="targetPoint" />
          </mxGeometry>
        </mxCell>
        <mxCell id="E0U4lTvcsHB6LOfYojCR-11" value="SInh viên" style="shape=umlActor;verticalLabelPosition=bottom;verticalAlign=top;html=1;outlineConnect=0;fontSize=11;fontColor=#000000;strokeColor=#000000;" vertex="1" parent="1">
          <mxGeometry x="520" y="420" width="30" height="60" as="geometry" />
        </mxCell>
        <mxCell id="E0U4lTvcsHB6LOfYojCR-12" value="Giảng viên" style="shape=umlActor;verticalLabelPosition=bottom;verticalAlign=top;html=1;outlineConnect=0;fontSize=11;fontColor=#000000;strokeColor=#000000;" vertex="1" parent="1">
          <mxGeometry x="520" y="555" width="30" height="60" as="geometry" />
        </mxCell>
        <mxCell id="E0U4lTvcsHB6LOfYojCR-13" value="" style="endArrow=none;html=1;rounded=0;fontSize=11;fontColor=#000000;entryX=0.5;entryY=0.5;entryDx=0;entryDy=0;entryPerimeter=0;exitX=1;exitY=0;exitDx=0;exitDy=0;" edge="1" parent="1" source="E0U4lTvcsHB6LOfYojCR-6" target="E0U4lTvcsHB6LOfYojCR-11">
          <mxGeometry width="50" height="50" relative="1" as="geometry">
            <mxPoint x="400" y="490" as="sourcePoint" />
            <mxPoint x="450" y="440" as="targetPoint" />
          </mxGeometry>
        </mxCell>
        <mxCell id="E0U4lTvcsHB6LOfYojCR-14" value="" style="endArrow=none;html=1;rounded=0;fontSize=11;fontColor=#000000;entryX=0.5;entryY=0.5;entryDx=0;entryDy=0;entryPerimeter=0;exitX=1;exitY=0.5;exitDx=0;exitDy=0;" edge="1" parent="1" source="E0U4lTvcsHB6LOfYojCR-6" target="E0U4lTvcsHB6LOfYojCR-12">
          <mxGeometry width="50" height="50" relative="1" as="geometry">
            <mxPoint x="400" y="490" as="sourcePoint" />
            <mxPoint x="450" y="440" as="targetPoint" />
          </mxGeometry>
        </mxCell>
      </root>
    </mxGraphModel>
  </diagram>
  <diagram id="M5buHOANGFOjmnUtYmo0" name="UC Giảng viên">
    <mxGraphModel dx="1045" dy="571" grid="1" gridSize="10" guides="1" tooltips="1" connect="1" arrows="1" fold="1" page="1" pageScale="1" pageWidth="850" pageHeight="1100" math="0" shadow="0">
      <root>
        <mxCell id="0" />
        <mxCell id="1" parent="0" />
        <mxCell id="RywVeoOVB8fxs-2s3wkj-1" value="UC Quản lý giảng viên" style="shape=umlFrame;whiteSpace=wrap;html=1;fontColor=#000000;strokeColor=#000000;fontSize=11;" vertex="1" parent="1">
          <mxGeometry x="150" y="250" width="470" height="440" as="geometry" />
        </mxCell>
        <mxCell id="H5lXoQ3_jiEIprMlDZcV-2" style="edgeStyle=orthogonalEdgeStyle;rounded=0;orthogonalLoop=1;jettySize=auto;html=1;exitX=0.5;exitY=0.5;exitDx=0;exitDy=0;exitPerimeter=0;fontSize=11;fontColor=#000000;endArrow=classic;endFill=1;" edge="1" parent="1" source="RywVeoOVB8fxs-2s3wkj-2" target="RywVeoOVB8fxs-2s3wkj-18">
          <mxGeometry relative="1" as="geometry" />
        </mxCell>
        <mxCell id="RywVeoOVB8fxs-2s3wkj-2" value="Cán bộ giáo vụ" style="shape=umlActor;verticalLabelPosition=bottom;verticalAlign=top;html=1;fontSize=11;fontColor=#000000;strokeColor=#000000;" vertex="1" parent="1">
          <mxGeometry x="280" y="420" width="30" height="60" as="geometry" />
        </mxCell>
        <mxCell id="RywVeoOVB8fxs-2s3wkj-3" value="Xem thông tin giảng viên" style="ellipse;whiteSpace=wrap;html=1;fontSize=11;fontColor=#000000;strokeColor=#000000;" vertex="1" parent="1">
          <mxGeometry x="390" y="330" width="110" height="50" as="geometry" />
        </mxCell>
        <mxCell id="RywVeoOVB8fxs-2s3wkj-4" value="Thêm giảng viên" style="ellipse;whiteSpace=wrap;html=1;fontSize=11;fontColor=#000000;strokeColor=#000000;" vertex="1" parent="1">
          <mxGeometry x="390" y="410" width="110" height="50" as="geometry" />
        </mxCell>
        <mxCell id="RywVeoOVB8fxs-2s3wkj-5" value="Chỉnh sửa thông tin giảng viên" style="ellipse;whiteSpace=wrap;html=1;fontSize=11;fontColor=#000000;strokeColor=#000000;" vertex="1" parent="1">
          <mxGeometry x="390" y="490" width="110" height="50" as="geometry" />
        </mxCell>
        <mxCell id="RywVeoOVB8fxs-2s3wkj-6" value="Xóa giảng viên" style="ellipse;whiteSpace=wrap;html=1;fontSize=11;fontColor=#000000;strokeColor=#000000;" vertex="1" parent="1">
          <mxGeometry x="390" y="570" width="110" height="50" as="geometry" />
        </mxCell>
        <mxCell id="RywVeoOVB8fxs-2s3wkj-7" value="" style="endArrow=none;html=1;rounded=0;fontSize=11;fontColor=#000000;entryX=0;entryY=0.5;entryDx=0;entryDy=0;exitX=0.5;exitY=0.5;exitDx=0;exitDy=0;exitPerimeter=0;" edge="1" parent="1" source="RywVeoOVB8fxs-2s3wkj-2" target="RywVeoOVB8fxs-2s3wkj-3">
          <mxGeometry width="50" height="50" relative="1" as="geometry">
            <mxPoint x="510" y="500" as="sourcePoint" />
            <mxPoint x="560" y="450" as="targetPoint" />
          </mxGeometry>
        </mxCell>
        <mxCell id="RywVeoOVB8fxs-2s3wkj-8" value="" style="endArrow=none;html=1;rounded=0;fontSize=11;fontColor=#000000;entryX=0;entryY=0.5;entryDx=0;entryDy=0;exitX=0.5;exitY=0.5;exitDx=0;exitDy=0;exitPerimeter=0;" edge="1" parent="1" source="RywVeoOVB8fxs-2s3wkj-2" target="RywVeoOVB8fxs-2s3wkj-4">
          <mxGeometry width="50" height="50" relative="1" as="geometry">
            <mxPoint x="315" y="450" as="sourcePoint" />
            <mxPoint x="400" y="365" as="targetPoint" />
          </mxGeometry>
        </mxCell>
        <mxCell id="RywVeoOVB8fxs-2s3wkj-9" value="" style="endArrow=none;html=1;rounded=0;fontSize=11;fontColor=#000000;entryX=0;entryY=0.5;entryDx=0;entryDy=0;exitX=0.5;exitY=0.5;exitDx=0;exitDy=0;exitPerimeter=0;" edge="1" parent="1" source="RywVeoOVB8fxs-2s3wkj-2" target="RywVeoOVB8fxs-2s3wkj-5">
          <mxGeometry width="50" height="50" relative="1" as="geometry">
            <mxPoint x="325" y="460" as="sourcePoint" />
            <mxPoint x="410" y="375" as="targetPoint" />
          </mxGeometry>
        </mxCell>
        <mxCell id="RywVeoOVB8fxs-2s3wkj-10" value="" style="endArrow=none;html=1;rounded=0;fontSize=11;fontColor=#000000;entryX=0;entryY=0.5;entryDx=0;entryDy=0;exitX=0.5;exitY=0.5;exitDx=0;exitDy=0;exitPerimeter=0;" edge="1" parent="1" source="RywVeoOVB8fxs-2s3wkj-2" target="RywVeoOVB8fxs-2s3wkj-6">
          <mxGeometry width="50" height="50" relative="1" as="geometry">
            <mxPoint x="310" y="450" as="sourcePoint" />
            <mxPoint x="420" y="385" as="targetPoint" />
          </mxGeometry>
        </mxCell>
        <mxCell id="RywVeoOVB8fxs-2s3wkj-18" value="Người dùng" style="shape=umlActor;verticalLabelPosition=bottom;verticalAlign=top;html=1;outlineConnect=0;fontSize=11;fontColor=#000000;strokeColor=#000000;" vertex="1" parent="1">
          <mxGeometry x="220" y="325" width="30" height="60" as="geometry" />
        </mxCell>
        <mxCell id="j1vWb0uSYmFTYcGXMGyx-1" value="" style="endArrow=none;html=1;rounded=0;fontSize=11;fontColor=#000000;entryX=0;entryY=0.5;entryDx=0;entryDy=0;exitX=0.5;exitY=0.5;exitDx=0;exitDy=0;exitPerimeter=0;" edge="1" parent="1" source="RywVeoOVB8fxs-2s3wkj-18" target="RywVeoOVB8fxs-2s3wkj-3">
          <mxGeometry width="50" height="50" relative="1" as="geometry">
            <mxPoint x="400" y="530" as="sourcePoint" />
            <mxPoint x="450" y="480" as="targetPoint" />
          </mxGeometry>
        </mxCell>
      </root>
    </mxGraphModel>
  </diagram>
  <diagram id="_B3gKGG4pm2qBvag6IA0" name="UC Sinh Viên">
    <mxGraphModel dx="1045" dy="571" grid="1" gridSize="10" guides="1" tooltips="1" connect="1" arrows="1" fold="1" page="1" pageScale="1" pageWidth="850" pageHeight="1100" math="0" shadow="0">
      <root>
        <mxCell id="0" />
        <mxCell id="1" parent="0" />
        <mxCell id="2kRxZ_Ammw8ujabQNJWn-1" value="UC Quản lý sinh viên" style="shape=umlFrame;whiteSpace=wrap;html=1;fontColor=#000000;strokeColor=#000000;fontSize=11;" vertex="1" parent="1">
          <mxGeometry x="150" y="230" width="470" height="440" as="geometry" />
        </mxCell>
        <mxCell id="ZFYq0HV6iuGDrjHO09ON-1" style="edgeStyle=orthogonalEdgeStyle;rounded=0;orthogonalLoop=1;jettySize=auto;html=1;exitX=0.5;exitY=0.5;exitDx=0;exitDy=0;exitPerimeter=0;fontSize=11;fontColor=#000000;endArrow=classic;endFill=1;" edge="1" parent="1" source="2kRxZ_Ammw8ujabQNJWn-2" target="2kRxZ_Ammw8ujabQNJWn-11">
          <mxGeometry relative="1" as="geometry" />
        </mxCell>
        <mxCell id="2kRxZ_Ammw8ujabQNJWn-2" value="Cán bộ giáo vụ" style="shape=umlActor;verticalLabelPosition=bottom;verticalAlign=top;html=1;fontSize=11;fontColor=#000000;strokeColor=#000000;" vertex="1" parent="1">
          <mxGeometry x="280" y="420" width="30" height="60" as="geometry" />
        </mxCell>
        <mxCell id="2kRxZ_Ammw8ujabQNJWn-3" value="Xem thông tin sinh viên" style="ellipse;whiteSpace=wrap;html=1;fontSize=11;fontColor=#000000;strokeColor=#000000;" vertex="1" parent="1">
          <mxGeometry x="390" y="330" width="110" height="50" as="geometry" />
        </mxCell>
        <mxCell id="2kRxZ_Ammw8ujabQNJWn-4" value="Thêm sinh viên" style="ellipse;whiteSpace=wrap;html=1;fontSize=11;fontColor=#000000;strokeColor=#000000;" vertex="1" parent="1">
          <mxGeometry x="390" y="410" width="110" height="50" as="geometry" />
        </mxCell>
        <mxCell id="2kRxZ_Ammw8ujabQNJWn-5" value="Chỉnh sửa thông tin sinh viên" style="ellipse;whiteSpace=wrap;html=1;fontSize=11;fontColor=#000000;strokeColor=#000000;" vertex="1" parent="1">
          <mxGeometry x="390" y="490" width="110" height="50" as="geometry" />
        </mxCell>
        <mxCell id="2kRxZ_Ammw8ujabQNJWn-6" value="Xóa sinh viên" style="ellipse;whiteSpace=wrap;html=1;fontSize=11;fontColor=#000000;strokeColor=#000000;" vertex="1" parent="1">
          <mxGeometry x="390" y="570" width="110" height="50" as="geometry" />
        </mxCell>
        <mxCell id="2kRxZ_Ammw8ujabQNJWn-7" value="" style="endArrow=none;html=1;rounded=0;fontSize=11;fontColor=#000000;entryX=0;entryY=0.5;entryDx=0;entryDy=0;exitX=0.5;exitY=0.5;exitDx=0;exitDy=0;exitPerimeter=0;" edge="1" parent="1" source="2kRxZ_Ammw8ujabQNJWn-2" target="2kRxZ_Ammw8ujabQNJWn-3">
          <mxGeometry width="50" height="50" relative="1" as="geometry">
            <mxPoint x="510" y="500" as="sourcePoint" />
            <mxPoint x="560" y="450" as="targetPoint" />
          </mxGeometry>
        </mxCell>
        <mxCell id="2kRxZ_Ammw8ujabQNJWn-8" value="" style="endArrow=none;html=1;rounded=0;fontSize=11;fontColor=#000000;entryX=0;entryY=0.5;entryDx=0;entryDy=0;exitX=0.5;exitY=0.5;exitDx=0;exitDy=0;exitPerimeter=0;" edge="1" parent="1" source="2kRxZ_Ammw8ujabQNJWn-2" target="2kRxZ_Ammw8ujabQNJWn-4">
          <mxGeometry width="50" height="50" relative="1" as="geometry">
            <mxPoint x="315" y="450" as="sourcePoint" />
            <mxPoint x="400" y="365" as="targetPoint" />
          </mxGeometry>
        </mxCell>
        <mxCell id="2kRxZ_Ammw8ujabQNJWn-9" value="" style="endArrow=none;html=1;rounded=0;fontSize=11;fontColor=#000000;entryX=0;entryY=0.5;entryDx=0;entryDy=0;exitX=0.5;exitY=0.5;exitDx=0;exitDy=0;exitPerimeter=0;" edge="1" parent="1" source="2kRxZ_Ammw8ujabQNJWn-2" target="2kRxZ_Ammw8ujabQNJWn-5">
          <mxGeometry width="50" height="50" relative="1" as="geometry">
            <mxPoint x="325" y="460" as="sourcePoint" />
            <mxPoint x="410" y="375" as="targetPoint" />
          </mxGeometry>
        </mxCell>
        <mxCell id="2kRxZ_Ammw8ujabQNJWn-10" value="" style="endArrow=none;html=1;rounded=0;fontSize=11;fontColor=#000000;entryX=0;entryY=0.5;entryDx=0;entryDy=0;exitX=0.5;exitY=0.5;exitDx=0;exitDy=0;exitPerimeter=0;" edge="1" parent="1" source="2kRxZ_Ammw8ujabQNJWn-2" target="2kRxZ_Ammw8ujabQNJWn-6">
          <mxGeometry width="50" height="50" relative="1" as="geometry">
            <mxPoint x="310" y="450" as="sourcePoint" />
            <mxPoint x="420" y="385" as="targetPoint" />
          </mxGeometry>
        </mxCell>
        <mxCell id="2kRxZ_Ammw8ujabQNJWn-11" value="Người dùng" style="shape=umlActor;verticalLabelPosition=bottom;verticalAlign=top;html=1;outlineConnect=0;fontSize=11;fontColor=#000000;strokeColor=#000000;" vertex="1" parent="1">
          <mxGeometry x="220" y="325" width="30" height="60" as="geometry" />
        </mxCell>
        <mxCell id="2kRxZ_Ammw8ujabQNJWn-12" value="" style="endArrow=none;html=1;rounded=0;fontSize=11;fontColor=#000000;entryX=0;entryY=0.5;entryDx=0;entryDy=0;exitX=0.5;exitY=0.5;exitDx=0;exitDy=0;exitPerimeter=0;" edge="1" parent="1" source="2kRxZ_Ammw8ujabQNJWn-11" target="2kRxZ_Ammw8ujabQNJWn-3">
          <mxGeometry width="50" height="50" relative="1" as="geometry">
            <mxPoint x="400" y="530" as="sourcePoint" />
            <mxPoint x="450" y="480" as="targetPoint" />
          </mxGeometry>
        </mxCell>
      </root>
    </mxGraphModel>
  </diagram>
  <diagram id="9eITZ_kT-UZkLvyoplW3" name="UC Nhóm thực tập">
    <mxGraphModel dx="1045" dy="571" grid="1" gridSize="10" guides="1" tooltips="1" connect="1" arrows="1" fold="1" page="1" pageScale="1" pageWidth="850" pageHeight="1100" math="0" shadow="0">
      <root>
        <mxCell id="0" />
        <mxCell id="1" parent="0" />
        <mxCell id="mjCqxXptxWROwGPXP1SU-1" value="UC Quản lý nhóm thực tập" style="shape=umlFrame;whiteSpace=wrap;html=1;fontColor=#000000;strokeColor=#000000;fontSize=11;" vertex="1" parent="1">
          <mxGeometry x="150" y="270" width="470" height="440" as="geometry" />
        </mxCell>
        <mxCell id="tr1U7vw7cvgevS0yICVQ-1" style="edgeStyle=orthogonalEdgeStyle;rounded=0;orthogonalLoop=1;jettySize=auto;html=1;fontSize=11;fontColor=#000000;endArrow=classic;endFill=1;" edge="1" parent="1" source="mjCqxXptxWROwGPXP1SU-2" target="mjCqxXptxWROwGPXP1SU-11">
          <mxGeometry relative="1" as="geometry" />
        </mxCell>
        <mxCell id="mjCqxXptxWROwGPXP1SU-2" value="Cán bộ giáo vụ" style="shape=umlActor;verticalLabelPosition=bottom;verticalAlign=top;html=1;fontSize=11;fontColor=#000000;strokeColor=#000000;" vertex="1" parent="1">
          <mxGeometry x="280" y="420" width="30" height="60" as="geometry" />
        </mxCell>
        <mxCell id="mjCqxXptxWROwGPXP1SU-3" value="Xem thông tin nhóm thực tập" style="ellipse;whiteSpace=wrap;html=1;fontSize=11;fontColor=#000000;strokeColor=#000000;" vertex="1" parent="1">
          <mxGeometry x="390" y="330" width="110" height="50" as="geometry" />
        </mxCell>
        <mxCell id="mjCqxXptxWROwGPXP1SU-4" value="Tạo&amp;nbsp;nhóm thực tập" style="ellipse;whiteSpace=wrap;html=1;fontSize=11;fontColor=#000000;strokeColor=#000000;" vertex="1" parent="1">
          <mxGeometry x="390" y="410" width="110" height="50" as="geometry" />
        </mxCell>
        <mxCell id="mjCqxXptxWROwGPXP1SU-5" value="Chỉnh sửa nhóm thực tập" style="ellipse;whiteSpace=wrap;html=1;fontSize=11;fontColor=#000000;strokeColor=#000000;" vertex="1" parent="1">
          <mxGeometry x="390" y="490" width="110" height="50" as="geometry" />
        </mxCell>
        <mxCell id="mjCqxXptxWROwGPXP1SU-6" value="Xóa&amp;nbsp;nhóm thực tập" style="ellipse;whiteSpace=wrap;html=1;fontSize=11;fontColor=#000000;strokeColor=#000000;" vertex="1" parent="1">
          <mxGeometry x="390" y="570" width="110" height="50" as="geometry" />
        </mxCell>
        <mxCell id="mjCqxXptxWROwGPXP1SU-7" value="" style="endArrow=none;html=1;rounded=0;fontSize=11;fontColor=#000000;entryX=0;entryY=0.5;entryDx=0;entryDy=0;exitX=0.5;exitY=0.5;exitDx=0;exitDy=0;exitPerimeter=0;" edge="1" parent="1" source="mjCqxXptxWROwGPXP1SU-2" target="mjCqxXptxWROwGPXP1SU-3">
          <mxGeometry width="50" height="50" relative="1" as="geometry">
            <mxPoint x="510" y="500" as="sourcePoint" />
            <mxPoint x="560" y="450" as="targetPoint" />
          </mxGeometry>
        </mxCell>
        <mxCell id="mjCqxXptxWROwGPXP1SU-8" value="" style="endArrow=none;html=1;rounded=0;fontSize=11;fontColor=#000000;entryX=0;entryY=0.5;entryDx=0;entryDy=0;exitX=0.5;exitY=0.5;exitDx=0;exitDy=0;exitPerimeter=0;" edge="1" parent="1" source="mjCqxXptxWROwGPXP1SU-2" target="mjCqxXptxWROwGPXP1SU-4">
          <mxGeometry width="50" height="50" relative="1" as="geometry">
            <mxPoint x="315" y="450" as="sourcePoint" />
            <mxPoint x="400" y="365" as="targetPoint" />
          </mxGeometry>
        </mxCell>
        <mxCell id="mjCqxXptxWROwGPXP1SU-9" value="" style="endArrow=none;html=1;rounded=0;fontSize=11;fontColor=#000000;entryX=0;entryY=0.5;entryDx=0;entryDy=0;exitX=0.5;exitY=0.5;exitDx=0;exitDy=0;exitPerimeter=0;" edge="1" parent="1" source="mjCqxXptxWROwGPXP1SU-2" target="mjCqxXptxWROwGPXP1SU-5">
          <mxGeometry width="50" height="50" relative="1" as="geometry">
            <mxPoint x="325" y="460" as="sourcePoint" />
            <mxPoint x="410" y="375" as="targetPoint" />
          </mxGeometry>
        </mxCell>
        <mxCell id="mjCqxXptxWROwGPXP1SU-10" value="" style="endArrow=none;html=1;rounded=0;fontSize=11;fontColor=#000000;entryX=0;entryY=0.5;entryDx=0;entryDy=0;exitX=0.5;exitY=0.5;exitDx=0;exitDy=0;exitPerimeter=0;" edge="1" parent="1" source="mjCqxXptxWROwGPXP1SU-2" target="mjCqxXptxWROwGPXP1SU-6">
          <mxGeometry width="50" height="50" relative="1" as="geometry">
            <mxPoint x="310" y="450" as="sourcePoint" />
            <mxPoint x="420" y="385" as="targetPoint" />
          </mxGeometry>
        </mxCell>
        <mxCell id="mjCqxXptxWROwGPXP1SU-11" value="Người dùng" style="shape=umlActor;verticalLabelPosition=bottom;verticalAlign=top;html=1;outlineConnect=0;fontSize=11;fontColor=#000000;strokeColor=#000000;" vertex="1" parent="1">
          <mxGeometry x="220" y="325" width="30" height="60" as="geometry" />
        </mxCell>
        <mxCell id="mjCqxXptxWROwGPXP1SU-12" value="" style="endArrow=none;html=1;rounded=0;fontSize=11;fontColor=#000000;entryX=0;entryY=0.5;entryDx=0;entryDy=0;exitX=0.5;exitY=0.5;exitDx=0;exitDy=0;exitPerimeter=0;" edge="1" parent="1" source="mjCqxXptxWROwGPXP1SU-11" target="mjCqxXptxWROwGPXP1SU-3">
          <mxGeometry width="50" height="50" relative="1" as="geometry">
            <mxPoint x="400" y="530" as="sourcePoint" />
            <mxPoint x="450" y="480" as="targetPoint" />
          </mxGeometry>
        </mxCell>
      </root>
    </mxGraphModel>
  </diagram>
  <diagram id="ic-mBtLNVLvrPl5ny1Ue" name="UC Tin Tức">
    <mxGraphModel dx="1045" dy="571" grid="1" gridSize="10" guides="1" tooltips="1" connect="1" arrows="1" fold="1" page="1" pageScale="1" pageWidth="850" pageHeight="1100" math="0" shadow="0">
      <root>
        <mxCell id="0" />
        <mxCell id="1" parent="0" />
        <mxCell id="w4MyX3mxFIlUQC2kf-Ao-1" value="UC Quản lý tin tức" style="shape=umlFrame;whiteSpace=wrap;html=1;fontColor=#000000;strokeColor=#000000;fontSize=11;" vertex="1" parent="1">
          <mxGeometry x="150" y="270" width="470" height="440" as="geometry" />
        </mxCell>
        <mxCell id="w4MyX3mxFIlUQC2kf-Ao-2" style="edgeStyle=orthogonalEdgeStyle;rounded=0;orthogonalLoop=1;jettySize=auto;html=1;fontSize=11;fontColor=#000000;endArrow=classic;endFill=1;" edge="1" parent="1" source="w4MyX3mxFIlUQC2kf-Ao-3" target="w4MyX3mxFIlUQC2kf-Ao-12">
          <mxGeometry relative="1" as="geometry" />
        </mxCell>
        <mxCell id="w4MyX3mxFIlUQC2kf-Ao-3" value="Cán bộ giáo vụ" style="shape=umlActor;verticalLabelPosition=bottom;verticalAlign=top;html=1;fontSize=11;fontColor=#000000;strokeColor=#000000;" vertex="1" parent="1">
          <mxGeometry x="280" y="420" width="30" height="60" as="geometry" />
        </mxCell>
        <mxCell id="w4MyX3mxFIlUQC2kf-Ao-4" value="Xem tin tức" style="ellipse;whiteSpace=wrap;html=1;fontSize=11;fontColor=#000000;strokeColor=#000000;" vertex="1" parent="1">
          <mxGeometry x="390" y="330" width="110" height="50" as="geometry" />
        </mxCell>
        <mxCell id="w4MyX3mxFIlUQC2kf-Ao-5" value="Đăng tin tức" style="ellipse;whiteSpace=wrap;html=1;fontSize=11;fontColor=#000000;strokeColor=#000000;" vertex="1" parent="1">
          <mxGeometry x="390" y="410" width="110" height="50" as="geometry" />
        </mxCell>
        <mxCell id="w4MyX3mxFIlUQC2kf-Ao-6" value="Chỉnh sửa tin tức" style="ellipse;whiteSpace=wrap;html=1;fontSize=11;fontColor=#000000;strokeColor=#000000;" vertex="1" parent="1">
          <mxGeometry x="390" y="490" width="110" height="50" as="geometry" />
        </mxCell>
        <mxCell id="w4MyX3mxFIlUQC2kf-Ao-7" value="Xóa tin tức" style="ellipse;whiteSpace=wrap;html=1;fontSize=11;fontColor=#000000;strokeColor=#000000;" vertex="1" parent="1">
          <mxGeometry x="390" y="570" width="110" height="50" as="geometry" />
        </mxCell>
        <mxCell id="w4MyX3mxFIlUQC2kf-Ao-8" value="" style="endArrow=none;html=1;rounded=0;fontSize=11;fontColor=#000000;entryX=0;entryY=0.5;entryDx=0;entryDy=0;exitX=0.5;exitY=0.5;exitDx=0;exitDy=0;exitPerimeter=0;" edge="1" parent="1" source="w4MyX3mxFIlUQC2kf-Ao-3" target="w4MyX3mxFIlUQC2kf-Ao-4">
          <mxGeometry width="50" height="50" relative="1" as="geometry">
            <mxPoint x="510" y="500" as="sourcePoint" />
            <mxPoint x="560" y="450" as="targetPoint" />
          </mxGeometry>
        </mxCell>
        <mxCell id="w4MyX3mxFIlUQC2kf-Ao-9" value="" style="endArrow=none;html=1;rounded=0;fontSize=11;fontColor=#000000;entryX=0;entryY=0.5;entryDx=0;entryDy=0;exitX=0.5;exitY=0.5;exitDx=0;exitDy=0;exitPerimeter=0;" edge="1" parent="1" source="w4MyX3mxFIlUQC2kf-Ao-3" target="w4MyX3mxFIlUQC2kf-Ao-5">
          <mxGeometry width="50" height="50" relative="1" as="geometry">
            <mxPoint x="315" y="450" as="sourcePoint" />
            <mxPoint x="400" y="365" as="targetPoint" />
          </mxGeometry>
        </mxCell>
        <mxCell id="w4MyX3mxFIlUQC2kf-Ao-10" value="" style="endArrow=none;html=1;rounded=0;fontSize=11;fontColor=#000000;entryX=0;entryY=0.5;entryDx=0;entryDy=0;exitX=0.5;exitY=0.5;exitDx=0;exitDy=0;exitPerimeter=0;" edge="1" parent="1" source="w4MyX3mxFIlUQC2kf-Ao-3" target="w4MyX3mxFIlUQC2kf-Ao-6">
          <mxGeometry width="50" height="50" relative="1" as="geometry">
            <mxPoint x="325" y="460" as="sourcePoint" />
            <mxPoint x="410" y="375" as="targetPoint" />
          </mxGeometry>
        </mxCell>
        <mxCell id="w4MyX3mxFIlUQC2kf-Ao-11" value="" style="endArrow=none;html=1;rounded=0;fontSize=11;fontColor=#000000;entryX=0;entryY=0.5;entryDx=0;entryDy=0;exitX=0.5;exitY=0.5;exitDx=0;exitDy=0;exitPerimeter=0;" edge="1" parent="1" source="w4MyX3mxFIlUQC2kf-Ao-3" target="w4MyX3mxFIlUQC2kf-Ao-7">
          <mxGeometry width="50" height="50" relative="1" as="geometry">
            <mxPoint x="310" y="450" as="sourcePoint" />
            <mxPoint x="420" y="385" as="targetPoint" />
          </mxGeometry>
        </mxCell>
        <mxCell id="w4MyX3mxFIlUQC2kf-Ao-12" value="Người dùng" style="shape=umlActor;verticalLabelPosition=bottom;verticalAlign=top;html=1;outlineConnect=0;fontSize=11;fontColor=#000000;strokeColor=#000000;" vertex="1" parent="1">
          <mxGeometry x="220" y="325" width="30" height="60" as="geometry" />
        </mxCell>
        <mxCell id="w4MyX3mxFIlUQC2kf-Ao-13" value="" style="endArrow=none;html=1;rounded=0;fontSize=11;fontColor=#000000;entryX=0;entryY=0.5;entryDx=0;entryDy=0;exitX=0.5;exitY=0.5;exitDx=0;exitDy=0;exitPerimeter=0;" edge="1" parent="1" source="w4MyX3mxFIlUQC2kf-Ao-12" target="w4MyX3mxFIlUQC2kf-Ao-4">
          <mxGeometry width="50" height="50" relative="1" as="geometry">
            <mxPoint x="400" y="530" as="sourcePoint" />
            <mxPoint x="450" y="480" as="targetPoint" />
          </mxGeometry>
        </mxCell>
      </root>
    </mxGraphModel>
  </diagram>
  <diagram id="uOhHibB13_bXDeN07-2V" name="Act Đăng kí nguyện vọng">
    <mxGraphModel dx="1045" dy="571" grid="1" gridSize="10" guides="1" tooltips="1" connect="1" arrows="1" fold="1" page="1" pageScale="1" pageWidth="850" pageHeight="1100" math="0" shadow="0">
      <root>
        <mxCell id="0" />
        <mxCell id="1" parent="0" />
        <mxCell id="cTGDGv3CWs5iHJDc-zaG-3" value="act Đăng kí nguyện vọng" style="shape=umlFrame;whiteSpace=wrap;html=1;fontSize=11;fontColor=#000000;strokeColor=#000000;width=140;height=30;" vertex="1" parent="1">
          <mxGeometry x="40" y="370" width="660" height="750" as="geometry" />
        </mxCell>
        <mxCell id="cTGDGv3CWs5iHJDc-zaG-11" value="Sinh viên" style="rounded=0;whiteSpace=wrap;html=1;fontSize=11;strokeColor=#d6b656;fillColor=#fff2cc;" vertex="1" parent="1">
          <mxGeometry x="120" y="440" width="240" height="20" as="geometry" />
        </mxCell>
        <mxCell id="cTGDGv3CWs5iHJDc-zaG-12" value="Hệ thống" style="rounded=0;whiteSpace=wrap;html=1;fontSize=11;strokeColor=#d6b656;fillColor=#fff2cc;" vertex="1" parent="1">
          <mxGeometry x="360" y="440" width="240" height="20" as="geometry" />
        </mxCell>
        <mxCell id="cTGDGv3CWs5iHJDc-zaG-13" value="" style="rounded=0;whiteSpace=wrap;html=1;fontSize=11;fontColor=#000000;strokeColor=#000000;gradientColor=none;" vertex="1" parent="1">
          <mxGeometry x="120" y="460" width="240" height="620" as="geometry" />
        </mxCell>
        <mxCell id="cTGDGv3CWs5iHJDc-zaG-14" value="" style="rounded=0;whiteSpace=wrap;html=1;fontSize=11;fontColor=#000000;strokeColor=#000000;gradientColor=none;" vertex="1" parent="1">
          <mxGeometry x="360" y="460" width="240" height="620" as="geometry" />
        </mxCell>
        <mxCell id="cTGDGv3CWs5iHJDc-zaG-19" value="" style="ellipse;html=1;shape=startState;fillColor=#000000;strokeColor=#ff0000;rounded=0;fontSize=11;fontColor=#000000;" vertex="1" parent="1">
          <mxGeometry x="220" y="480" width="30" height="30" as="geometry" />
        </mxCell>
        <mxCell id="cTGDGv3CWs5iHJDc-zaG-20" value="" style="edgeStyle=orthogonalEdgeStyle;html=1;verticalAlign=bottom;endArrow=open;endSize=8;strokeColor=#000000;rounded=0;fontSize=11;fontColor=#000000;" edge="1" source="cTGDGv3CWs5iHJDc-zaG-19" parent="1">
          <mxGeometry relative="1" as="geometry">
            <mxPoint x="235" y="550" as="targetPoint" />
          </mxGeometry>
        </mxCell>
        <mxCell id="cTGDGv3CWs5iHJDc-zaG-29" value="" style="edgeStyle=orthogonalEdgeStyle;rounded=0;orthogonalLoop=1;jettySize=auto;html=1;fontSize=11;fontColor=#000000;endArrow=classic;endFill=1;" edge="1" parent="1" source="cTGDGv3CWs5iHJDc-zaG-21" target="cTGDGv3CWs5iHJDc-zaG-22">
          <mxGeometry relative="1" as="geometry" />
        </mxCell>
        <mxCell id="cTGDGv3CWs5iHJDc-zaG-21" value="Chọn đơn đăng kí nguyện vọng" style="rounded=1;whiteSpace=wrap;html=1;fontSize=11;strokeColor=#d6b656;fillColor=#fff2cc;" vertex="1" parent="1">
          <mxGeometry x="175" y="550" width="120" height="60" as="geometry" />
        </mxCell>
        <mxCell id="cTGDGv3CWs5iHJDc-zaG-30" style="edgeStyle=orthogonalEdgeStyle;rounded=0;orthogonalLoop=1;jettySize=auto;html=1;exitX=0.5;exitY=1;exitDx=0;exitDy=0;entryX=0.5;entryY=0;entryDx=0;entryDy=0;fontSize=11;fontColor=#000000;endArrow=classic;endFill=1;" edge="1" parent="1" source="cTGDGv3CWs5iHJDc-zaG-22" target="cTGDGv3CWs5iHJDc-zaG-23">
          <mxGeometry relative="1" as="geometry" />
        </mxCell>
        <mxCell id="cTGDGv3CWs5iHJDc-zaG-22" value="Nhập thông tin nguyện vọng(Học phần,Định hướng,Nơi thực tập,Giảng viên hướng dẫn)" style="rounded=1;whiteSpace=wrap;html=1;fontSize=11;strokeColor=#d6b656;fillColor=#fff2cc;" vertex="1" parent="1">
          <mxGeometry x="147.5" y="650" width="175" height="70" as="geometry" />
        </mxCell>
        <mxCell id="cTGDGv3CWs5iHJDc-zaG-31" style="edgeStyle=orthogonalEdgeStyle;rounded=0;orthogonalLoop=1;jettySize=auto;html=1;exitX=1;exitY=0.5;exitDx=0;exitDy=0;fontSize=11;fontColor=#000000;endArrow=classic;endFill=1;" edge="1" parent="1" source="cTGDGv3CWs5iHJDc-zaG-23" target="cTGDGv3CWs5iHJDc-zaG-24">
          <mxGeometry relative="1" as="geometry" />
        </mxCell>
        <mxCell id="cTGDGv3CWs5iHJDc-zaG-23" value="Nhấn đăng kí" style="rounded=1;whiteSpace=wrap;html=1;fontSize=11;strokeColor=#d6b656;fillColor=#fff2cc;" vertex="1" parent="1">
          <mxGeometry x="175" y="780" width="120" height="60" as="geometry" />
        </mxCell>
        <mxCell id="cTGDGv3CWs5iHJDc-zaG-32" style="edgeStyle=orthogonalEdgeStyle;rounded=0;orthogonalLoop=1;jettySize=auto;html=1;fontSize=11;fontColor=#000000;endArrow=classic;endFill=1;strokeColor=#000000;" edge="1" parent="1" source="cTGDGv3CWs5iHJDc-zaG-24" target="cTGDGv3CWs5iHJDc-zaG-25">
          <mxGeometry relative="1" as="geometry" />
        </mxCell>
        <mxCell id="cTGDGv3CWs5iHJDc-zaG-24" value="Lưu thông tin nguyện vọng&lt;span style=&quot;color: rgba(0 , 0 , 0 , 0) ; font-family: monospace ; font-size: 0px&quot;&gt;%3CmxGraphModel%3E%3Croot%3E%3CmxCell%20id%3D%220%22%2F%3E%3CmxCell%20id%3D%221%22%20parent%3D%220%22%2F%3E%3CmxCell%20id%3D%222%22%20value%3D%22Nh%E1%BA%A5n%20%C4%91%C4%83ng%20k%C3%AD%22%20style%3D%22rounded%3D1%3BwhiteSpace%3Dwrap%3Bhtml%3D1%3BfontSize%3D11%3BstrokeColor%3D%23d6b656%3BfillColor%3D%23fff2cc%3B%22%20vertex%3D%221%22%20parent%3D%221%22%3E%3CmxGeometry%20x%3D%22180%22%20y%3D%22780%22%20width%3D%22120%22%20height%3D%2260%22%20as%3D%22geometry%22%2F%3E%3C%2FmxCell%3E%3C%2Froot%3E%3C%2FmxGraphModel%3E&lt;/span&gt;" style="rounded=1;whiteSpace=wrap;html=1;fontSize=11;strokeColor=#d6b656;fillColor=#fff2cc;" vertex="1" parent="1">
          <mxGeometry x="425" y="780" width="120" height="60" as="geometry" />
        </mxCell>
        <mxCell id="NEIOHd8g22wQvYB9GMeR-2" style="edgeStyle=orthogonalEdgeStyle;rounded=0;orthogonalLoop=1;jettySize=auto;html=1;exitX=0.5;exitY=1;exitDx=0;exitDy=0;entryX=0.5;entryY=0;entryDx=0;entryDy=0;fontSize=11;fontColor=#000000;endArrow=classic;endFill=1;strokeColor=#000000;" edge="1" parent="1" source="cTGDGv3CWs5iHJDc-zaG-25" target="NEIOHd8g22wQvYB9GMeR-1">
          <mxGeometry relative="1" as="geometry" />
        </mxCell>
        <mxCell id="cTGDGv3CWs5iHJDc-zaG-25" value="Gửi thông báo đến giảng viên được chọn" style="rounded=1;whiteSpace=wrap;html=1;fontSize=11;strokeColor=#d6b656;fillColor=#fff2cc;" vertex="1" parent="1">
          <mxGeometry x="425" y="910" width="120" height="60" as="geometry" />
        </mxCell>
        <mxCell id="NEIOHd8g22wQvYB9GMeR-1" value="" style="ellipse;html=1;shape=endState;fillColor=#000000;strokeColor=#ff0000;rounded=1;fontSize=11;fontColor=#000000;" vertex="1" parent="1">
          <mxGeometry x="470" y="1020" width="30" height="30" as="geometry" />
        </mxCell>
      </root>
    </mxGraphModel>
  </diagram>
  <diagram id="rbOIsGStwz6H0SEUZVY6" name="act Xử lý,phân công thực tập">
    <mxGraphModel dx="1045" dy="571" grid="1" gridSize="10" guides="1" tooltips="1" connect="1" arrows="1" fold="1" page="1" pageScale="1" pageWidth="850" pageHeight="1100" math="0" shadow="0">
      <root>
        <mxCell id="0" />
        <mxCell id="1" parent="0" />
        <mxCell id="Imz_LPyHrr0mC-hSBrIs-1" value="act Xử lý, phân công thực tập" style="shape=umlFrame;whiteSpace=wrap;html=1;fontSize=11;fontColor=#000000;strokeColor=#000000;width=200;height=30;" vertex="1" parent="1">
          <mxGeometry x="40" y="370" width="660" height="990" as="geometry" />
        </mxCell>
        <mxCell id="Imz_LPyHrr0mC-hSBrIs-2" value="Cán bộ giáo vụ" style="rounded=0;whiteSpace=wrap;html=1;fontSize=11;strokeColor=#d6b656;fillColor=#fff2cc;" vertex="1" parent="1">
          <mxGeometry x="120" y="440" width="240" height="20" as="geometry" />
        </mxCell>
        <mxCell id="Imz_LPyHrr0mC-hSBrIs-3" value="Hệ thống" style="rounded=0;whiteSpace=wrap;html=1;fontSize=11;strokeColor=#d6b656;fillColor=#fff2cc;" vertex="1" parent="1">
          <mxGeometry x="360" y="440" width="240" height="20" as="geometry" />
        </mxCell>
        <mxCell id="Imz_LPyHrr0mC-hSBrIs-4" value="" style="rounded=0;whiteSpace=wrap;html=1;fontSize=11;fontColor=#000000;strokeColor=#000000;gradientColor=none;" vertex="1" parent="1">
          <mxGeometry x="120" y="460" width="240" height="860" as="geometry" />
        </mxCell>
        <mxCell id="Imz_LPyHrr0mC-hSBrIs-5" value="" style="rounded=0;whiteSpace=wrap;html=1;fontSize=11;fontColor=#000000;strokeColor=#000000;gradientColor=none;" vertex="1" parent="1">
          <mxGeometry x="360" y="460" width="240" height="860" as="geometry" />
        </mxCell>
        <mxCell id="Imz_LPyHrr0mC-hSBrIs-6" value="" style="ellipse;html=1;shape=startState;fillColor=#000000;strokeColor=#ff0000;rounded=0;fontSize=11;fontColor=#000000;" vertex="1" parent="1">
          <mxGeometry x="220" y="480" width="30" height="30" as="geometry" />
        </mxCell>
        <mxCell id="Imz_LPyHrr0mC-hSBrIs-7" value="" style="edgeStyle=orthogonalEdgeStyle;html=1;verticalAlign=bottom;endArrow=open;endSize=8;strokeColor=#000000;rounded=0;fontSize=11;fontColor=#000000;" edge="1" parent="1" source="Imz_LPyHrr0mC-hSBrIs-6">
          <mxGeometry relative="1" as="geometry">
            <mxPoint x="235" y="550" as="targetPoint" />
          </mxGeometry>
        </mxCell>
        <mxCell id="pBRf9t3q8A_HoYpJ6DCg-2" style="edgeStyle=orthogonalEdgeStyle;rounded=0;orthogonalLoop=1;jettySize=auto;html=1;exitX=1;exitY=0.5;exitDx=0;exitDy=0;entryX=0;entryY=0.5;entryDx=0;entryDy=0;fontSize=11;fontColor=#000000;endArrow=classic;endFill=1;strokeColor=#000000;" edge="1" parent="1" source="Imz_LPyHrr0mC-hSBrIs-9" target="Imz_LPyHrr0mC-hSBrIs-20">
          <mxGeometry relative="1" as="geometry" />
        </mxCell>
        <mxCell id="Imz_LPyHrr0mC-hSBrIs-9" value="Chọn Quản lý nguyện vọng thực tập" style="rounded=1;whiteSpace=wrap;html=1;fontSize=11;strokeColor=#d6b656;fillColor=#fff2cc;" vertex="1" parent="1">
          <mxGeometry x="175" y="550" width="120" height="60" as="geometry" />
        </mxCell>
        <mxCell id="pBRf9t3q8A_HoYpJ6DCg-4" style="edgeStyle=orthogonalEdgeStyle;rounded=0;orthogonalLoop=1;jettySize=auto;html=1;fontSize=11;fontColor=#000000;endArrow=classic;endFill=1;strokeColor=#000000;" edge="1" parent="1" source="Imz_LPyHrr0mC-hSBrIs-19" target="Imz_LPyHrr0mC-hSBrIs-21">
          <mxGeometry relative="1" as="geometry" />
        </mxCell>
        <mxCell id="Imz_LPyHrr0mC-hSBrIs-19" value="Chọn Xử lý nguyện vọng thực tập" style="rounded=1;whiteSpace=wrap;html=1;fontSize=11;strokeColor=#d6b656;fillColor=#fff2cc;" vertex="1" parent="1">
          <mxGeometry x="175" y="660" width="120" height="60" as="geometry" />
        </mxCell>
        <mxCell id="pBRf9t3q8A_HoYpJ6DCg-3" style="edgeStyle=orthogonalEdgeStyle;rounded=0;orthogonalLoop=1;jettySize=auto;html=1;exitX=0;exitY=0.75;exitDx=0;exitDy=0;entryX=1;entryY=0.383;entryDx=0;entryDy=0;entryPerimeter=0;fontSize=11;fontColor=#000000;endArrow=classic;endFill=1;strokeColor=#000000;" edge="1" parent="1" source="Imz_LPyHrr0mC-hSBrIs-20" target="Imz_LPyHrr0mC-hSBrIs-19">
          <mxGeometry relative="1" as="geometry" />
        </mxCell>
        <mxCell id="Imz_LPyHrr0mC-hSBrIs-20" value="Hiển thị danh sách các bản đăng kí thực tập" style="rounded=1;whiteSpace=wrap;html=1;fontSize=11;strokeColor=#d6b656;fillColor=#fff2cc;" vertex="1" parent="1">
          <mxGeometry x="410" y="550" width="120" height="60" as="geometry" />
        </mxCell>
        <mxCell id="pBRf9t3q8A_HoYpJ6DCg-5" style="edgeStyle=orthogonalEdgeStyle;rounded=0;orthogonalLoop=1;jettySize=auto;html=1;exitX=0.5;exitY=1;exitDx=0;exitDy=0;entryX=0.5;entryY=0;entryDx=0;entryDy=0;fontSize=11;fontColor=#000000;endArrow=classic;endFill=1;strokeColor=#000000;" edge="1" parent="1" source="Imz_LPyHrr0mC-hSBrIs-21" target="Imz_LPyHrr0mC-hSBrIs-22">
          <mxGeometry relative="1" as="geometry" />
        </mxCell>
        <mxCell id="Imz_LPyHrr0mC-hSBrIs-21" value="Xử lý nguyện vọng thực tập theo thời gian đăng kí" style="rounded=1;whiteSpace=wrap;html=1;fontSize=11;strokeColor=#d6b656;fillColor=#fff2cc;" vertex="1" parent="1">
          <mxGeometry x="410" y="660" width="120" height="60" as="geometry" />
        </mxCell>
        <mxCell id="pBRf9t3q8A_HoYpJ6DCg-6" style="edgeStyle=orthogonalEdgeStyle;rounded=0;orthogonalLoop=1;jettySize=auto;html=1;exitX=0.5;exitY=1;exitDx=0;exitDy=0;entryX=0.5;entryY=0;entryDx=0;entryDy=0;fontSize=11;fontColor=#000000;endArrow=classic;endFill=1;strokeColor=#000000;" edge="1" parent="1" source="Imz_LPyHrr0mC-hSBrIs-22" target="Imz_LPyHrr0mC-hSBrIs-23">
          <mxGeometry relative="1" as="geometry" />
        </mxCell>
        <mxCell id="Imz_LPyHrr0mC-hSBrIs-22" value="Tạo nhóm thực tập" style="rounded=1;whiteSpace=wrap;html=1;fontSize=11;strokeColor=#d6b656;fillColor=#fff2cc;" vertex="1" parent="1">
          <mxGeometry x="410" y="770" width="120" height="60" as="geometry" />
        </mxCell>
        <mxCell id="pBRf9t3q8A_HoYpJ6DCg-7" style="edgeStyle=orthogonalEdgeStyle;rounded=0;orthogonalLoop=1;jettySize=auto;html=1;exitX=0.5;exitY=1;exitDx=0;exitDy=0;entryX=0.5;entryY=0;entryDx=0;entryDy=0;fontSize=11;fontColor=#000000;endArrow=classic;endFill=1;strokeColor=#000000;" edge="1" parent="1" source="Imz_LPyHrr0mC-hSBrIs-23" target="Imz_LPyHrr0mC-hSBrIs-24">
          <mxGeometry relative="1" as="geometry" />
        </mxCell>
        <mxCell id="Imz_LPyHrr0mC-hSBrIs-23" value="Gửi Email đến các công ty liên kết" style="rounded=1;whiteSpace=wrap;html=1;fontSize=11;strokeColor=#d6b656;fillColor=#fff2cc;" vertex="1" parent="1">
          <mxGeometry x="410" y="870" width="120" height="60" as="geometry" />
        </mxCell>
        <mxCell id="pBRf9t3q8A_HoYpJ6DCg-8" style="edgeStyle=orthogonalEdgeStyle;rounded=0;orthogonalLoop=1;jettySize=auto;html=1;exitX=0.5;exitY=1;exitDx=0;exitDy=0;entryX=0.5;entryY=0;entryDx=0;entryDy=0;fontSize=11;fontColor=#000000;endArrow=classic;endFill=1;strokeColor=#000000;" edge="1" parent="1" source="Imz_LPyHrr0mC-hSBrIs-24" target="Imz_LPyHrr0mC-hSBrIs-25">
          <mxGeometry relative="1" as="geometry" />
        </mxCell>
        <mxCell id="Imz_LPyHrr0mC-hSBrIs-24" value="Gửi thông báo đến sinh viên, giảng viên" style="rounded=1;whiteSpace=wrap;html=1;fontSize=11;strokeColor=#d6b656;fillColor=#fff2cc;" vertex="1" parent="1">
          <mxGeometry x="410" y="960" width="120" height="60" as="geometry" />
        </mxCell>
        <mxCell id="pBRf9t3q8A_HoYpJ6DCg-1" style="edgeStyle=orthogonalEdgeStyle;rounded=0;orthogonalLoop=1;jettySize=auto;html=1;exitX=0.5;exitY=1;exitDx=0;exitDy=0;entryX=0.5;entryY=0;entryDx=0;entryDy=0;fontSize=11;fontColor=#000000;endArrow=classic;endFill=1;strokeColor=#000000;" edge="1" parent="1" source="Imz_LPyHrr0mC-hSBrIs-25" target="Imz_LPyHrr0mC-hSBrIs-26">
          <mxGeometry relative="1" as="geometry" />
        </mxCell>
        <mxCell id="Imz_LPyHrr0mC-hSBrIs-25" value="Thông báo thành công" style="rounded=1;whiteSpace=wrap;html=1;fontSize=11;strokeColor=#d6b656;fillColor=#fff2cc;" vertex="1" parent="1">
          <mxGeometry x="410" y="1060" width="120" height="60" as="geometry" />
        </mxCell>
        <mxCell id="Imz_LPyHrr0mC-hSBrIs-26" value="" style="ellipse;html=1;shape=endState;fillColor=#000000;strokeColor=#ff0000;rounded=1;fontSize=11;fontColor=#000000;" vertex="1" parent="1">
          <mxGeometry x="455" y="1210" width="30" height="30" as="geometry" />
        </mxCell>
      </root>
    </mxGraphModel>
  </diagram>
  <diagram id="XU8I6H9dajty-duod9X6" name="act Báo cáo thực tập">
    <mxGraphModel dx="1045" dy="571" grid="1" gridSize="10" guides="1" tooltips="1" connect="1" arrows="1" fold="1" page="1" pageScale="1" pageWidth="850" pageHeight="1100" math="0" shadow="0">
      <root>
        <mxCell id="0" />
        <mxCell id="1" parent="0" />
        <mxCell id="nG94yv6nJPXg7pVc8il6-1" value="act Báo cáo thực tập" style="shape=umlFrame;whiteSpace=wrap;html=1;fontSize=11;fontColor=#000000;strokeColor=#000000;width=140;height=30;" vertex="1" parent="1">
          <mxGeometry x="40" y="370" width="660" height="750" as="geometry" />
        </mxCell>
        <mxCell id="nG94yv6nJPXg7pVc8il6-2" value="Sinh viên" style="rounded=0;whiteSpace=wrap;html=1;fontSize=11;strokeColor=#d6b656;fillColor=#fff2cc;" vertex="1" parent="1">
          <mxGeometry x="120" y="440" width="240" height="20" as="geometry" />
        </mxCell>
        <mxCell id="nG94yv6nJPXg7pVc8il6-3" value="Hệ thống" style="rounded=0;whiteSpace=wrap;html=1;fontSize=11;strokeColor=#d6b656;fillColor=#fff2cc;" vertex="1" parent="1">
          <mxGeometry x="360" y="440" width="240" height="20" as="geometry" />
        </mxCell>
        <mxCell id="nG94yv6nJPXg7pVc8il6-4" value="" style="rounded=0;whiteSpace=wrap;html=1;fontSize=11;fontColor=#000000;strokeColor=#000000;gradientColor=none;" vertex="1" parent="1">
          <mxGeometry x="120" y="460" width="240" height="620" as="geometry" />
        </mxCell>
        <mxCell id="nG94yv6nJPXg7pVc8il6-5" value="" style="rounded=0;whiteSpace=wrap;html=1;fontSize=11;fontColor=#000000;strokeColor=#000000;gradientColor=none;" vertex="1" parent="1">
          <mxGeometry x="360" y="460" width="240" height="620" as="geometry" />
        </mxCell>
        <mxCell id="nG94yv6nJPXg7pVc8il6-6" value="" style="ellipse;html=1;shape=startState;fillColor=#000000;strokeColor=#ff0000;rounded=0;fontSize=11;fontColor=#000000;" vertex="1" parent="1">
          <mxGeometry x="220" y="480" width="30" height="30" as="geometry" />
        </mxCell>
        <mxCell id="nG94yv6nJPXg7pVc8il6-7" value="" style="edgeStyle=orthogonalEdgeStyle;html=1;verticalAlign=bottom;endArrow=open;endSize=8;strokeColor=#000000;rounded=0;fontSize=11;fontColor=#000000;" edge="1" parent="1" source="nG94yv6nJPXg7pVc8il6-6">
          <mxGeometry relative="1" as="geometry">
            <mxPoint x="235" y="550" as="targetPoint" />
          </mxGeometry>
        </mxCell>
        <mxCell id="nG94yv6nJPXg7pVc8il6-26" style="edgeStyle=orthogonalEdgeStyle;rounded=0;orthogonalLoop=1;jettySize=auto;html=1;fontSize=11;fontColor=#000000;endArrow=classic;endFill=1;strokeColor=#000000;" edge="1" parent="1" source="nG94yv6nJPXg7pVc8il6-9" target="nG94yv6nJPXg7pVc8il6-21">
          <mxGeometry relative="1" as="geometry" />
        </mxCell>
        <mxCell id="nG94yv6nJPXg7pVc8il6-9" value="Chọn báo cáo thực tập" style="rounded=1;whiteSpace=wrap;html=1;fontSize=11;strokeColor=#d6b656;fillColor=#fff2cc;" vertex="1" parent="1">
          <mxGeometry x="175" y="550" width="120" height="60" as="geometry" />
        </mxCell>
        <mxCell id="nG94yv6nJPXg7pVc8il6-28" style="edgeStyle=orthogonalEdgeStyle;rounded=0;orthogonalLoop=1;jettySize=auto;html=1;exitX=0.5;exitY=1;exitDx=0;exitDy=0;entryX=0.5;entryY=0;entryDx=0;entryDy=0;fontSize=11;fontColor=#000000;endArrow=classic;endFill=1;strokeColor=#000000;" edge="1" parent="1" source="nG94yv6nJPXg7pVc8il6-19" target="nG94yv6nJPXg7pVc8il6-20">
          <mxGeometry relative="1" as="geometry" />
        </mxCell>
        <mxCell id="nG94yv6nJPXg7pVc8il6-19" value="Chỉnh sửa thông tin báo cáo" style="rounded=1;whiteSpace=wrap;html=1;fontSize=11;strokeColor=#d6b656;fillColor=#fff2cc;" vertex="1" parent="1">
          <mxGeometry x="175" y="670" width="120" height="60" as="geometry" />
        </mxCell>
        <mxCell id="nG94yv6nJPXg7pVc8il6-29" style="edgeStyle=orthogonalEdgeStyle;rounded=0;orthogonalLoop=1;jettySize=auto;html=1;exitX=1;exitY=0.5;exitDx=0;exitDy=0;fontSize=11;fontColor=#000000;endArrow=classic;endFill=1;strokeColor=#000000;" edge="1" parent="1" source="nG94yv6nJPXg7pVc8il6-20" target="nG94yv6nJPXg7pVc8il6-22">
          <mxGeometry relative="1" as="geometry" />
        </mxCell>
        <mxCell id="nG94yv6nJPXg7pVc8il6-20" value="Nhấn Ok" style="rounded=1;whiteSpace=wrap;html=1;fontSize=11;strokeColor=#d6b656;fillColor=#fff2cc;" vertex="1" parent="1">
          <mxGeometry x="175" y="780" width="120" height="60" as="geometry" />
        </mxCell>
        <mxCell id="nG94yv6nJPXg7pVc8il6-27" style="edgeStyle=orthogonalEdgeStyle;rounded=0;orthogonalLoop=1;jettySize=auto;html=1;exitX=0;exitY=1;exitDx=0;exitDy=0;entryX=1;entryY=0;entryDx=0;entryDy=0;fontSize=11;fontColor=#000000;endArrow=classic;endFill=1;strokeColor=#000000;" edge="1" parent="1" source="nG94yv6nJPXg7pVc8il6-21" target="nG94yv6nJPXg7pVc8il6-19">
          <mxGeometry relative="1" as="geometry" />
        </mxCell>
        <mxCell id="nG94yv6nJPXg7pVc8il6-21" value="Hiển thị màn hình báo cáo" style="rounded=1;whiteSpace=wrap;html=1;fontSize=11;strokeColor=#d6b656;fillColor=#fff2cc;" vertex="1" parent="1">
          <mxGeometry x="425" y="550" width="120" height="60" as="geometry" />
        </mxCell>
        <mxCell id="nG94yv6nJPXg7pVc8il6-30" style="edgeStyle=orthogonalEdgeStyle;rounded=0;orthogonalLoop=1;jettySize=auto;html=1;exitX=0.5;exitY=1;exitDx=0;exitDy=0;entryX=0.5;entryY=0;entryDx=0;entryDy=0;fontSize=11;fontColor=#000000;endArrow=classic;endFill=1;strokeColor=#000000;" edge="1" parent="1" source="nG94yv6nJPXg7pVc8il6-22" target="nG94yv6nJPXg7pVc8il6-23">
          <mxGeometry relative="1" as="geometry" />
        </mxCell>
        <mxCell id="nG94yv6nJPXg7pVc8il6-22" value="Lưu thông tin báo cáo, thông báo cho giảng viên" style="rounded=1;whiteSpace=wrap;html=1;fontSize=11;strokeColor=#d6b656;fillColor=#fff2cc;" vertex="1" parent="1">
          <mxGeometry x="420" y="780" width="120" height="60" as="geometry" />
        </mxCell>
        <mxCell id="nG94yv6nJPXg7pVc8il6-31" style="edgeStyle=orthogonalEdgeStyle;rounded=0;orthogonalLoop=1;jettySize=auto;html=1;exitX=0.5;exitY=1;exitDx=0;exitDy=0;entryX=0.5;entryY=0;entryDx=0;entryDy=0;fontSize=11;fontColor=#000000;endArrow=classic;endFill=1;strokeColor=#000000;" edge="1" parent="1" source="nG94yv6nJPXg7pVc8il6-23" target="nG94yv6nJPXg7pVc8il6-24">
          <mxGeometry relative="1" as="geometry" />
        </mxCell>
        <mxCell id="nG94yv6nJPXg7pVc8il6-23" value="Thông báo thành công" style="rounded=1;whiteSpace=wrap;html=1;fontSize=11;strokeColor=#d6b656;fillColor=#fff2cc;" vertex="1" parent="1">
          <mxGeometry x="420" y="880" width="120" height="60" as="geometry" />
        </mxCell>
        <mxCell id="nG94yv6nJPXg7pVc8il6-24" value="" style="ellipse;html=1;shape=endState;fillColor=#000000;strokeColor=#ff0000;rounded=1;fontSize=11;fontColor=#000000;" vertex="1" parent="1">
          <mxGeometry x="465" y="1010" width="30" height="30" as="geometry" />
        </mxCell>
      </root>
    </mxGraphModel>
  </diagram>
  <diagram id="QavHwhb8zWXLbruCvgAJ" name="act Hướng dẫn thực tập">
    <mxGraphModel dx="1045" dy="571" grid="1" gridSize="10" guides="1" tooltips="1" connect="1" arrows="1" fold="1" page="1" pageScale="1" pageWidth="850" pageHeight="1100" math="0" shadow="0">
      <root>
        <mxCell id="0" />
        <mxCell id="1" parent="0" />
        <mxCell id="-Ea5XaDm8zTVSVwCC9bO-1" value="act Hướng dẫn thực tập" style="shape=umlFrame;whiteSpace=wrap;html=1;fontSize=11;fontColor=#000000;strokeColor=#000000;width=140;height=30;" vertex="1" parent="1">
          <mxGeometry x="40" y="370" width="660" height="860" as="geometry" />
        </mxCell>
        <mxCell id="-Ea5XaDm8zTVSVwCC9bO-2" value="Giảng viên" style="rounded=0;whiteSpace=wrap;html=1;fontSize=11;strokeColor=#d6b656;fillColor=#fff2cc;" vertex="1" parent="1">
          <mxGeometry x="120" y="440" width="240" height="20" as="geometry" />
        </mxCell>
        <mxCell id="-Ea5XaDm8zTVSVwCC9bO-3" value="Hệ thống" style="rounded=0;whiteSpace=wrap;html=1;fontSize=11;strokeColor=#d6b656;fillColor=#fff2cc;" vertex="1" parent="1">
          <mxGeometry x="360" y="440" width="240" height="20" as="geometry" />
        </mxCell>
        <mxCell id="-Ea5XaDm8zTVSVwCC9bO-4" value="" style="rounded=0;whiteSpace=wrap;html=1;fontSize=11;fontColor=#000000;strokeColor=#000000;gradientColor=none;" vertex="1" parent="1">
          <mxGeometry x="120" y="460" width="240" height="710" as="geometry" />
        </mxCell>
        <mxCell id="-Ea5XaDm8zTVSVwCC9bO-5" value="" style="rounded=0;whiteSpace=wrap;html=1;fontSize=11;fontColor=#000000;strokeColor=#000000;gradientColor=none;" vertex="1" parent="1">
          <mxGeometry x="360" y="460" width="240" height="710" as="geometry" />
        </mxCell>
        <mxCell id="-Ea5XaDm8zTVSVwCC9bO-6" value="" style="ellipse;html=1;shape=startState;fillColor=#000000;strokeColor=#ff0000;rounded=0;fontSize=11;fontColor=#000000;" vertex="1" parent="1">
          <mxGeometry x="220" y="480" width="30" height="30" as="geometry" />
        </mxCell>
        <mxCell id="-Ea5XaDm8zTVSVwCC9bO-7" value="" style="edgeStyle=orthogonalEdgeStyle;html=1;verticalAlign=bottom;endArrow=open;endSize=8;strokeColor=#000000;rounded=0;fontSize=11;fontColor=#000000;" edge="1" parent="1" source="-Ea5XaDm8zTVSVwCC9bO-6">
          <mxGeometry relative="1" as="geometry">
            <mxPoint x="235" y="550" as="targetPoint" />
          </mxGeometry>
        </mxCell>
        <mxCell id="-Ea5XaDm8zTVSVwCC9bO-27" style="edgeStyle=orthogonalEdgeStyle;rounded=0;orthogonalLoop=1;jettySize=auto;html=1;exitX=0.5;exitY=1;exitDx=0;exitDy=0;entryX=0.5;entryY=0;entryDx=0;entryDy=0;fontSize=11;fontColor=#000000;endArrow=classic;endFill=1;strokeColor=#000000;" edge="1" parent="1" source="-Ea5XaDm8zTVSVwCC9bO-9" target="-Ea5XaDm8zTVSVwCC9bO-21">
          <mxGeometry relative="1" as="geometry" />
        </mxCell>
        <mxCell id="-Ea5XaDm8zTVSVwCC9bO-9" value="Chọn báo cáo thực tập" style="rounded=1;whiteSpace=wrap;html=1;fontSize=11;strokeColor=#d6b656;fillColor=#fff2cc;" vertex="1" parent="1">
          <mxGeometry x="175" y="550" width="120" height="60" as="geometry" />
        </mxCell>
        <mxCell id="-Ea5XaDm8zTVSVwCC9bO-16" style="edgeStyle=orthogonalEdgeStyle;rounded=0;orthogonalLoop=1;jettySize=auto;html=1;exitX=0.5;exitY=1;exitDx=0;exitDy=0;entryX=0.5;entryY=0;entryDx=0;entryDy=0;fontSize=11;fontColor=#000000;endArrow=classic;endFill=1;strokeColor=#000000;" edge="1" parent="1" target="-Ea5XaDm8zTVSVwCC9bO-19">
          <mxGeometry relative="1" as="geometry">
            <mxPoint x="480" y="839.9999999999998" as="sourcePoint" />
          </mxGeometry>
        </mxCell>
        <mxCell id="-Ea5XaDm8zTVSVwCC9bO-20" value="" style="ellipse;html=1;shape=endState;fillColor=#000000;strokeColor=#ff0000;rounded=1;fontSize=11;fontColor=#000000;" vertex="1" parent="1">
          <mxGeometry x="465" y="1120" width="30" height="30" as="geometry" />
        </mxCell>
        <mxCell id="-Ea5XaDm8zTVSVwCC9bO-28" style="edgeStyle=orthogonalEdgeStyle;rounded=0;orthogonalLoop=1;jettySize=auto;html=1;exitX=1;exitY=0.5;exitDx=0;exitDy=0;entryX=0;entryY=0.5;entryDx=0;entryDy=0;fontSize=11;fontColor=#000000;endArrow=classic;endFill=1;strokeColor=#000000;" edge="1" parent="1" source="-Ea5XaDm8zTVSVwCC9bO-21" target="-Ea5XaDm8zTVSVwCC9bO-24">
          <mxGeometry relative="1" as="geometry" />
        </mxCell>
        <mxCell id="-Ea5XaDm8zTVSVwCC9bO-21" value="Nhấn trả lời" style="rounded=1;whiteSpace=wrap;html=1;fontSize=11;strokeColor=#d6b656;fillColor=#fff2cc;" vertex="1" parent="1">
          <mxGeometry x="175" y="650" width="120" height="60" as="geometry" />
        </mxCell>
        <mxCell id="-Ea5XaDm8zTVSVwCC9bO-30" style="edgeStyle=orthogonalEdgeStyle;rounded=0;orthogonalLoop=1;jettySize=auto;html=1;exitX=0.5;exitY=1;exitDx=0;exitDy=0;entryX=0.5;entryY=0;entryDx=0;entryDy=0;fontSize=11;fontColor=#000000;endArrow=classic;endFill=1;strokeColor=#000000;" edge="1" parent="1" source="-Ea5XaDm8zTVSVwCC9bO-22" target="-Ea5XaDm8zTVSVwCC9bO-23">
          <mxGeometry relative="1" as="geometry" />
        </mxCell>
        <mxCell id="-Ea5XaDm8zTVSVwCC9bO-22" value="Nhập thông tin hướng dẫn thực tập" style="rounded=1;whiteSpace=wrap;html=1;fontSize=11;strokeColor=#d6b656;fillColor=#fff2cc;" vertex="1" parent="1">
          <mxGeometry x="175" y="760" width="120" height="60" as="geometry" />
        </mxCell>
        <mxCell id="-Ea5XaDm8zTVSVwCC9bO-31" style="edgeStyle=orthogonalEdgeStyle;rounded=0;orthogonalLoop=1;jettySize=auto;html=1;exitX=1;exitY=0.5;exitDx=0;exitDy=0;fontSize=11;fontColor=#000000;endArrow=classic;endFill=1;strokeColor=#000000;" edge="1" parent="1" source="-Ea5XaDm8zTVSVwCC9bO-23" target="-Ea5XaDm8zTVSVwCC9bO-25">
          <mxGeometry relative="1" as="geometry" />
        </mxCell>
        <mxCell id="-Ea5XaDm8zTVSVwCC9bO-23" value="Ấn Ok" style="rounded=1;whiteSpace=wrap;html=1;fontSize=11;strokeColor=#d6b656;fillColor=#fff2cc;" vertex="1" parent="1">
          <mxGeometry x="175" y="870" width="120" height="60" as="geometry" />
        </mxCell>
        <mxCell id="-Ea5XaDm8zTVSVwCC9bO-29" style="edgeStyle=orthogonalEdgeStyle;rounded=0;orthogonalLoop=1;jettySize=auto;html=1;exitX=0;exitY=1;exitDx=0;exitDy=0;entryX=0.5;entryY=0;entryDx=0;entryDy=0;fontSize=11;fontColor=#000000;endArrow=classic;endFill=1;strokeColor=#000000;" edge="1" parent="1" source="-Ea5XaDm8zTVSVwCC9bO-24" target="-Ea5XaDm8zTVSVwCC9bO-22">
          <mxGeometry relative="1" as="geometry" />
        </mxCell>
        <mxCell id="-Ea5XaDm8zTVSVwCC9bO-24" value="Hiển thị màn hình trả lời báo cáo" style="rounded=1;whiteSpace=wrap;html=1;fontSize=11;strokeColor=#d6b656;fillColor=#fff2cc;" vertex="1" parent="1">
          <mxGeometry x="420" y="650" width="120" height="60" as="geometry" />
        </mxCell>
        <mxCell id="-Ea5XaDm8zTVSVwCC9bO-33" style="edgeStyle=orthogonalEdgeStyle;rounded=0;orthogonalLoop=1;jettySize=auto;html=1;entryX=0.5;entryY=0;entryDx=0;entryDy=0;fontSize=11;fontColor=#000000;endArrow=classic;endFill=1;strokeColor=#000000;" edge="1" parent="1" source="-Ea5XaDm8zTVSVwCC9bO-25" target="-Ea5XaDm8zTVSVwCC9bO-26">
          <mxGeometry relative="1" as="geometry" />
        </mxCell>
        <mxCell id="-Ea5XaDm8zTVSVwCC9bO-25" value="Lưu thông tin thông báo cho sinh viên" style="rounded=1;whiteSpace=wrap;html=1;fontSize=11;strokeColor=#d6b656;fillColor=#fff2cc;" vertex="1" parent="1">
          <mxGeometry x="420" y="870" width="120" height="60" as="geometry" />
        </mxCell>
        <mxCell id="-Ea5XaDm8zTVSVwCC9bO-34" style="edgeStyle=orthogonalEdgeStyle;rounded=0;orthogonalLoop=1;jettySize=auto;html=1;exitX=0.5;exitY=1;exitDx=0;exitDy=0;entryX=0.5;entryY=0;entryDx=0;entryDy=0;fontSize=11;fontColor=#000000;endArrow=classic;endFill=1;strokeColor=#000000;" edge="1" parent="1" source="-Ea5XaDm8zTVSVwCC9bO-26" target="-Ea5XaDm8zTVSVwCC9bO-20">
          <mxGeometry relative="1" as="geometry" />
        </mxCell>
        <mxCell id="-Ea5XaDm8zTVSVwCC9bO-26" value="Thông báo thành công" style="rounded=1;whiteSpace=wrap;html=1;fontSize=11;strokeColor=#d6b656;fillColor=#fff2cc;" vertex="1" parent="1">
          <mxGeometry x="420" y="1010" width="120" height="60" as="geometry" />
        </mxCell>
      </root>
    </mxGraphModel>
  </diagram>
  <diagram id="ksM4-wDllxEaiwkOTOoh" name="act Đánh giá thực tập">
    <mxGraphModel dx="1038" dy="571" grid="1" gridSize="10" guides="1" tooltips="1" connect="1" arrows="1" fold="1" page="1" pageScale="1" pageWidth="850" pageHeight="1100" math="0" shadow="0">
      <root>
        <mxCell id="0" />
        <mxCell id="1" parent="0" />
        <mxCell id="zNAupYi_iTxnY4jjXxdm-1" value="act Đánh giá thực tập" style="shape=umlFrame;whiteSpace=wrap;html=1;fontSize=11;fontColor=#000000;strokeColor=#000000;width=140;height=30;" parent="1" vertex="1">
          <mxGeometry x="40" y="370" width="660" height="750" as="geometry" />
        </mxCell>
        <mxCell id="zNAupYi_iTxnY4jjXxdm-2" value="Giảng viên" style="rounded=0;whiteSpace=wrap;html=1;fontSize=11;strokeColor=#d6b656;fillColor=#fff2cc;" parent="1" vertex="1">
          <mxGeometry x="120" y="440" width="240" height="20" as="geometry" />
        </mxCell>
        <mxCell id="zNAupYi_iTxnY4jjXxdm-3" value="Hệ thống" style="rounded=0;whiteSpace=wrap;html=1;fontSize=11;strokeColor=#d6b656;fillColor=#fff2cc;" parent="1" vertex="1">
          <mxGeometry x="360" y="440" width="240" height="20" as="geometry" />
        </mxCell>
        <mxCell id="zNAupYi_iTxnY4jjXxdm-4" value="" style="rounded=0;whiteSpace=wrap;html=1;fontSize=11;fontColor=#000000;strokeColor=#000000;gradientColor=none;" parent="1" vertex="1">
          <mxGeometry x="120" y="460" width="240" height="620" as="geometry" />
        </mxCell>
        <mxCell id="zNAupYi_iTxnY4jjXxdm-5" value="" style="rounded=0;whiteSpace=wrap;html=1;fontSize=11;fontColor=#000000;strokeColor=#000000;gradientColor=none;" parent="1" vertex="1">
          <mxGeometry x="360" y="460" width="240" height="620" as="geometry" />
        </mxCell>
        <mxCell id="zNAupYi_iTxnY4jjXxdm-6" value="" style="ellipse;html=1;shape=startState;fillColor=#000000;strokeColor=#ff0000;rounded=0;fontSize=11;fontColor=#000000;" parent="1" vertex="1">
          <mxGeometry x="220" y="480" width="30" height="30" as="geometry" />
        </mxCell>
        <mxCell id="zNAupYi_iTxnY4jjXxdm-7" value="" style="edgeStyle=orthogonalEdgeStyle;html=1;verticalAlign=bottom;endArrow=open;endSize=8;strokeColor=#000000;rounded=0;fontSize=11;fontColor=#000000;" parent="1" source="zNAupYi_iTxnY4jjXxdm-6" edge="1">
          <mxGeometry relative="1" as="geometry">
            <mxPoint x="235" y="550" as="targetPoint" />
          </mxGeometry>
        </mxCell>
        <mxCell id="zNAupYi_iTxnY4jjXxdm-8" style="edgeStyle=orthogonalEdgeStyle;rounded=0;orthogonalLoop=1;jettySize=auto;html=1;fontSize=11;fontColor=#000000;endArrow=classic;endFill=1;strokeColor=#000000;" parent="1" source="zNAupYi_iTxnY4jjXxdm-9" target="zNAupYi_iTxnY4jjXxdm-15" edge="1">
          <mxGeometry relative="1" as="geometry" />
        </mxCell>
        <mxCell id="zNAupYi_iTxnY4jjXxdm-9" value="Chọn đánh thực tập" style="rounded=1;whiteSpace=wrap;html=1;fontSize=11;strokeColor=#d6b656;fillColor=#fff2cc;" parent="1" vertex="1">
          <mxGeometry x="175" y="550" width="120" height="60" as="geometry" />
        </mxCell>
        <mxCell id="zNAupYi_iTxnY4jjXxdm-10" style="edgeStyle=orthogonalEdgeStyle;rounded=0;orthogonalLoop=1;jettySize=auto;html=1;exitX=0.5;exitY=1;exitDx=0;exitDy=0;entryX=0.5;entryY=0;entryDx=0;entryDy=0;fontSize=11;fontColor=#000000;endArrow=classic;endFill=1;strokeColor=#000000;" parent="1" source="zNAupYi_iTxnY4jjXxdm-11" target="zNAupYi_iTxnY4jjXxdm-13" edge="1">
          <mxGeometry relative="1" as="geometry" />
        </mxCell>
        <mxCell id="zNAupYi_iTxnY4jjXxdm-11" value="Chọn sinh viên cần đánh giá" style="rounded=1;whiteSpace=wrap;html=1;fontSize=11;strokeColor=#d6b656;fillColor=#fff2cc;" parent="1" vertex="1">
          <mxGeometry x="175" y="670" width="120" height="60" as="geometry" />
        </mxCell>
        <mxCell id="zNAupYi_iTxnY4jjXxdm-12" style="edgeStyle=orthogonalEdgeStyle;rounded=0;orthogonalLoop=1;jettySize=auto;html=1;exitX=1;exitY=0.5;exitDx=0;exitDy=0;fontSize=11;fontColor=#000000;endArrow=classic;endFill=1;strokeColor=#000000;" parent="1" source="zNAupYi_iTxnY4jjXxdm-13" target="zNAupYi_iTxnY4jjXxdm-17" edge="1">
          <mxGeometry relative="1" as="geometry" />
        </mxCell>
        <mxCell id="zNAupYi_iTxnY4jjXxdm-13" value="Nhập thông tin đánh giá" style="rounded=1;whiteSpace=wrap;html=1;fontSize=11;strokeColor=#d6b656;fillColor=#fff2cc;" parent="1" vertex="1">
          <mxGeometry x="175" y="780" width="120" height="60" as="geometry" />
        </mxCell>
        <mxCell id="zNAupYi_iTxnY4jjXxdm-14" style="edgeStyle=orthogonalEdgeStyle;rounded=0;orthogonalLoop=1;jettySize=auto;html=1;exitX=0;exitY=1;exitDx=0;exitDy=0;entryX=1;entryY=0;entryDx=0;entryDy=0;fontSize=11;fontColor=#000000;endArrow=classic;endFill=1;strokeColor=#000000;" parent="1" source="zNAupYi_iTxnY4jjXxdm-15" target="zNAupYi_iTxnY4jjXxdm-11" edge="1">
          <mxGeometry relative="1" as="geometry" />
        </mxCell>
        <mxCell id="zNAupYi_iTxnY4jjXxdm-15" value="Hiển thị màn hình danh sách sinh viên" style="rounded=1;whiteSpace=wrap;html=1;fontSize=11;strokeColor=#d6b656;fillColor=#fff2cc;" parent="1" vertex="1">
          <mxGeometry x="425" y="550" width="120" height="60" as="geometry" />
        </mxCell>
        <mxCell id="zNAupYi_iTxnY4jjXxdm-16" style="edgeStyle=orthogonalEdgeStyle;rounded=0;orthogonalLoop=1;jettySize=auto;html=1;exitX=0.5;exitY=1;exitDx=0;exitDy=0;entryX=0.5;entryY=0;entryDx=0;entryDy=0;fontSize=11;fontColor=#000000;endArrow=classic;endFill=1;strokeColor=#000000;" parent="1" source="zNAupYi_iTxnY4jjXxdm-17" target="zNAupYi_iTxnY4jjXxdm-19" edge="1">
          <mxGeometry relative="1" as="geometry" />
        </mxCell>
        <mxCell id="zNAupYi_iTxnY4jjXxdm-17" value="Lưu thông tin , thông báo cho sinh viên,cán bộ giáo vụ" style="rounded=1;whiteSpace=wrap;html=1;fontSize=11;strokeColor=#d6b656;fillColor=#fff2cc;" parent="1" vertex="1">
          <mxGeometry x="420" y="780" width="120" height="60" as="geometry" />
        </mxCell>
        <mxCell id="zNAupYi_iTxnY4jjXxdm-18" style="edgeStyle=orthogonalEdgeStyle;rounded=0;orthogonalLoop=1;jettySize=auto;html=1;exitX=0.5;exitY=1;exitDx=0;exitDy=0;entryX=0.5;entryY=0;entryDx=0;entryDy=0;fontSize=11;fontColor=#000000;endArrow=classic;endFill=1;strokeColor=#000000;" parent="1" source="zNAupYi_iTxnY4jjXxdm-19" target="zNAupYi_iTxnY4jjXxdm-20" edge="1">
          <mxGeometry relative="1" as="geometry" />
        </mxCell>
        <mxCell id="zNAupYi_iTxnY4jjXxdm-19" value="Thông báo thành công" style="rounded=1;whiteSpace=wrap;html=1;fontSize=11;strokeColor=#d6b656;fillColor=#fff2cc;" parent="1" vertex="1">
          <mxGeometry x="420" y="880" width="120" height="60" as="geometry" />
        </mxCell>
        <mxCell id="zNAupYi_iTxnY4jjXxdm-20" value="" style="ellipse;html=1;shape=endState;fillColor=#000000;strokeColor=#ff0000;rounded=1;fontSize=11;fontColor=#000000;" parent="1" vertex="1">
          <mxGeometry x="465" y="1010" width="30" height="30" as="geometry" />
        </mxCell>
      </root>
    </mxGraphModel>
  </diagram>
  <diagram id="0yUgWtgnyMql2SzGhAe_" name="Biểu đồ đóng gói tổng quan">
    <mxGraphModel dx="1633" dy="915" grid="1" gridSize="10" guides="1" tooltips="1" connect="1" arrows="1" fold="1" page="1" pageScale="1" pageWidth="850" pageHeight="1100" math="0" shadow="0">
      <root>
        <mxCell id="0" />
        <mxCell id="1" parent="0" />
        <mxCell id="26tlOCHycImvTsbVBz7u-1" value="frame" style="shape=umlFrame;whiteSpace=wrap;html=1;" vertex="1" parent="1">
          <mxGeometry x="70" y="40" width="690" height="970" as="geometry" />
        </mxCell>
        <mxCell id="26tlOCHycImvTsbVBz7u-18" style="edgeStyle=orthogonalEdgeStyle;rounded=0;orthogonalLoop=1;jettySize=auto;html=1;dashed=1;" edge="1" parent="1" source="26tlOCHycImvTsbVBz7u-2" target="26tlOCHycImvTsbVBz7u-8">
          <mxGeometry relative="1" as="geometry" />
        </mxCell>
        <mxCell id="26tlOCHycImvTsbVBz7u-21" style="edgeStyle=orthogonalEdgeStyle;rounded=0;orthogonalLoop=1;jettySize=auto;html=1;exitX=0;exitY=0;exitDx=330;exitDy=130;exitPerimeter=0;dashed=1;" edge="1" parent="1" source="26tlOCHycImvTsbVBz7u-2" target="26tlOCHycImvTsbVBz7u-16">
          <mxGeometry relative="1" as="geometry" />
        </mxCell>
        <mxCell id="26tlOCHycImvTsbVBz7u-2" value="" style="shape=folder;fontStyle=1;spacingTop=10;tabWidth=140;tabHeight=20;tabPosition=left;html=1;" vertex="1" parent="1">
          <mxGeometry x="140" y="80" width="330" height="240" as="geometry" />
        </mxCell>
        <mxCell id="26tlOCHycImvTsbVBz7u-3" value="StudentInternshipManagement" style="text;align=center;fontStyle=1;verticalAlign=middle;spacingLeft=3;spacingRight=3;strokeColor=none;rotatable=0;points=[[0,0.5],[1,0.5]];portConstraint=eastwest;" vertex="1" parent="1">
          <mxGeometry x="265" y="120" width="80" height="26" as="geometry" />
        </mxCell>
        <mxCell id="26tlOCHycImvTsbVBz7u-4" value="Controllers" style="shape=folder;fontStyle=1;spacingTop=10;tabWidth=40;tabHeight=14;tabPosition=left;html=1;" vertex="1" parent="1">
          <mxGeometry x="190" y="180" width="130" height="80" as="geometry" />
        </mxCell>
        <mxCell id="26tlOCHycImvTsbVBz7u-5" value="Views" style="shape=folder;fontStyle=1;spacingTop=10;tabWidth=40;tabHeight=14;tabPosition=left;html=1;" vertex="1" parent="1">
          <mxGeometry x="330" y="180" width="130" height="80" as="geometry" />
        </mxCell>
        <mxCell id="26tlOCHycImvTsbVBz7u-6" style="edgeStyle=orthogonalEdgeStyle;rounded=0;orthogonalLoop=1;jettySize=auto;html=1;exitX=1;exitY=0.5;exitDx=0;exitDy=0;" edge="1" parent="1" source="26tlOCHycImvTsbVBz7u-3" target="26tlOCHycImvTsbVBz7u-3">
          <mxGeometry relative="1" as="geometry" />
        </mxCell>
        <mxCell id="26tlOCHycImvTsbVBz7u-19" style="edgeStyle=orthogonalEdgeStyle;rounded=0;orthogonalLoop=1;jettySize=auto;html=1;dashed=1;" edge="1" parent="1" source="26tlOCHycImvTsbVBz7u-8" target="26tlOCHycImvTsbVBz7u-11">
          <mxGeometry relative="1" as="geometry" />
        </mxCell>
        <mxCell id="26tlOCHycImvTsbVBz7u-22" style="edgeStyle=orthogonalEdgeStyle;rounded=0;orthogonalLoop=1;jettySize=auto;html=1;exitX=0;exitY=0;exitDx=180;exitDy=63.18;exitPerimeter=0;entryX=0.011;entryY=0.454;entryDx=0;entryDy=0;entryPerimeter=0;dashed=1;" edge="1" parent="1" source="26tlOCHycImvTsbVBz7u-8" target="26tlOCHycImvTsbVBz7u-16">
          <mxGeometry relative="1" as="geometry" />
        </mxCell>
        <mxCell id="26tlOCHycImvTsbVBz7u-8" value="" style="shape=folder;fontStyle=1;spacingTop=10;tabWidth=140;tabHeight=20;tabPosition=left;html=1;" vertex="1" parent="1">
          <mxGeometry x="215" y="400" width="180" height="106.36" as="geometry" />
        </mxCell>
        <mxCell id="26tlOCHycImvTsbVBz7u-9" value="Services" style="text;align=center;fontStyle=1;verticalAlign=middle;spacingLeft=3;spacingRight=3;strokeColor=none;rotatable=0;points=[[0,0.5],[1,0.5]];portConstraint=eastwest;" vertex="1" parent="1">
          <mxGeometry x="260" y="426.36" width="80" height="26" as="geometry" />
        </mxCell>
        <mxCell id="26tlOCHycImvTsbVBz7u-10" style="edgeStyle=orthogonalEdgeStyle;rounded=0;orthogonalLoop=1;jettySize=auto;html=1;exitX=1;exitY=0.5;exitDx=0;exitDy=0;" edge="1" parent="1" source="26tlOCHycImvTsbVBz7u-9" target="26tlOCHycImvTsbVBz7u-9">
          <mxGeometry relative="1" as="geometry" />
        </mxCell>
        <mxCell id="26tlOCHycImvTsbVBz7u-20" style="edgeStyle=orthogonalEdgeStyle;rounded=0;orthogonalLoop=1;jettySize=auto;html=1;exitX=0.5;exitY=1;exitDx=0;exitDy=0;exitPerimeter=0;dashed=1;" edge="1" parent="1" source="26tlOCHycImvTsbVBz7u-11" target="26tlOCHycImvTsbVBz7u-13">
          <mxGeometry relative="1" as="geometry" />
        </mxCell>
        <mxCell id="26tlOCHycImvTsbVBz7u-25" style="edgeStyle=orthogonalEdgeStyle;rounded=0;orthogonalLoop=1;jettySize=auto;html=1;exitX=0;exitY=0;exitDx=180;exitDy=63.18;exitPerimeter=0;dashed=1;endArrow=none;endFill=0;" edge="1" parent="1" source="26tlOCHycImvTsbVBz7u-11">
          <mxGeometry relative="1" as="geometry">
            <mxPoint x="450" y="633" as="targetPoint" />
          </mxGeometry>
        </mxCell>
        <mxCell id="26tlOCHycImvTsbVBz7u-11" value="" style="shape=folder;fontStyle=1;spacingTop=10;tabWidth=140;tabHeight=20;tabPosition=left;html=1;" vertex="1" parent="1">
          <mxGeometry x="215" y="570" width="180" height="106.36" as="geometry" />
        </mxCell>
        <mxCell id="26tlOCHycImvTsbVBz7u-12" value="Repositories" style="text;align=center;fontStyle=1;verticalAlign=middle;spacingLeft=3;spacingRight=3;strokeColor=none;rotatable=0;points=[[0,0.5],[1,0.5]];portConstraint=eastwest;" vertex="1" parent="1">
          <mxGeometry x="260" y="586.36" width="80" height="26" as="geometry" />
        </mxCell>
        <mxCell id="26tlOCHycImvTsbVBz7u-27" style="edgeStyle=orthogonalEdgeStyle;rounded=0;orthogonalLoop=1;jettySize=auto;html=1;exitX=0;exitY=0;exitDx=180;exitDy=63.18;exitPerimeter=0;dashed=1;endArrow=none;endFill=0;" edge="1" parent="1" source="26tlOCHycImvTsbVBz7u-13">
          <mxGeometry relative="1" as="geometry">
            <mxPoint x="450" y="640" as="targetPoint" />
          </mxGeometry>
        </mxCell>
        <mxCell id="26tlOCHycImvTsbVBz7u-13" value="" style="shape=folder;fontStyle=1;spacingTop=10;tabWidth=140;tabHeight=20;tabPosition=left;html=1;" vertex="1" parent="1">
          <mxGeometry x="215" y="730" width="180" height="106.36" as="geometry" />
        </mxCell>
        <mxCell id="26tlOCHycImvTsbVBz7u-14" value="Models" style="text;align=center;fontStyle=1;verticalAlign=middle;spacingLeft=3;spacingRight=3;strokeColor=none;rotatable=0;points=[[0,0.5],[1,0.5]];portConstraint=eastwest;" vertex="1" parent="1">
          <mxGeometry x="260" y="756.36" width="80" height="26" as="geometry" />
        </mxCell>
        <mxCell id="26tlOCHycImvTsbVBz7u-16" value="" style="shape=folder;fontStyle=1;spacingTop=10;tabWidth=140;tabHeight=20;tabPosition=left;html=1;" vertex="1" parent="1">
          <mxGeometry x="500" y="500" width="180" height="297.64" as="geometry" />
        </mxCell>
        <mxCell id="26tlOCHycImvTsbVBz7u-17" value="Utilities" style="text;align=center;fontStyle=1;verticalAlign=middle;spacingLeft=3;spacingRight=3;strokeColor=none;rotatable=0;points=[[0,0.5],[1,0.5]];portConstraint=eastwest;" vertex="1" parent="1">
          <mxGeometry x="550" y="526.36" width="80" height="26" as="geometry" />
        </mxCell>
      </root>
    </mxGraphModel>
  </diagram>
  <diagram id="MMIeQ3atOaEK6fh2O2bH" name="Biểu đồ đóng gói chi tiết">
    <mxGraphModel dx="1283" dy="719" grid="1" gridSize="10" guides="1" tooltips="1" connect="1" arrows="1" fold="1" page="1" pageScale="1" pageWidth="850" pageHeight="1100" math="0" shadow="0">
      <root>
        <mxCell id="0" />
        <mxCell id="1" parent="0" />
        <mxCell id="IVJkkFhH39mO2WbUyXx4-1" value="frame" style="shape=umlFrame;whiteSpace=wrap;html=1;" vertex="1" parent="1">
          <mxGeometry x="70" y="40" width="690" height="970" as="geometry" />
        </mxCell>
        <mxCell id="IVJkkFhH39mO2WbUyXx4-4" value="" style="shape=folder;fontStyle=1;spacingTop=10;tabWidth=140;tabHeight=20;tabPosition=left;html=1;" vertex="1" parent="1">
          <mxGeometry x="140" y="80" width="330" height="240" as="geometry" />
        </mxCell>
        <mxCell id="IVJkkFhH39mO2WbUyXx4-5" value="StudentInternshipManagement" style="text;align=center;fontStyle=1;verticalAlign=middle;spacingLeft=3;spacingRight=3;strokeColor=none;rotatable=0;points=[[0,0.5],[1,0.5]];portConstraint=eastwest;" vertex="1" parent="1">
          <mxGeometry x="265" y="120" width="80" height="26" as="geometry" />
        </mxCell>
        <mxCell id="IVJkkFhH39mO2WbUyXx4-6" value="" style="shape=folder;fontStyle=1;spacingTop=10;tabWidth=90;tabHeight=20;tabPosition=left;html=1;" vertex="1" parent="1">
          <mxGeometry x="160" y="160" width="160" height="100" as="geometry" />
        </mxCell>
        <mxCell id="IVJkkFhH39mO2WbUyXx4-7" value="Views" style="shape=folder;fontStyle=1;spacingTop=10;tabWidth=40;tabHeight=14;tabPosition=left;html=1;" vertex="1" parent="1">
          <mxGeometry x="330" y="180" width="130" height="80" as="geometry" />
        </mxCell>
        <mxCell id="IVJkkFhH39mO2WbUyXx4-8" style="edgeStyle=orthogonalEdgeStyle;rounded=0;orthogonalLoop=1;jettySize=auto;html=1;exitX=1;exitY=0.5;exitDx=0;exitDy=0;" edge="1" parent="1" source="IVJkkFhH39mO2WbUyXx4-5" target="IVJkkFhH39mO2WbUyXx4-5">
          <mxGeometry relative="1" as="geometry" />
        </mxCell>
        <mxCell id="IVJkkFhH39mO2WbUyXx4-11" value="" style="shape=folder;fontStyle=1;spacingTop=10;tabWidth=140;tabHeight=20;tabPosition=left;html=1;" vertex="1" parent="1">
          <mxGeometry x="215" y="400" width="180" height="106.36" as="geometry" />
        </mxCell>
        <mxCell id="IVJkkFhH39mO2WbUyXx4-12" value="Services" style="text;align=center;fontStyle=1;verticalAlign=middle;spacingLeft=3;spacingRight=3;strokeColor=none;rotatable=0;points=[[0,0.5],[1,0.5]];portConstraint=eastwest;" vertex="1" parent="1">
          <mxGeometry x="260" y="426.36" width="80" height="26" as="geometry" />
        </mxCell>
        <mxCell id="IVJkkFhH39mO2WbUyXx4-13" style="edgeStyle=orthogonalEdgeStyle;rounded=0;orthogonalLoop=1;jettySize=auto;html=1;exitX=1;exitY=0.5;exitDx=0;exitDy=0;" edge="1" parent="1" source="IVJkkFhH39mO2WbUyXx4-12" target="IVJkkFhH39mO2WbUyXx4-12">
          <mxGeometry relative="1" as="geometry" />
        </mxCell>
        <mxCell id="IVJkkFhH39mO2WbUyXx4-16" value="" style="shape=folder;fontStyle=1;spacingTop=10;tabWidth=140;tabHeight=20;tabPosition=left;html=1;" vertex="1" parent="1">
          <mxGeometry x="215" y="570" width="180" height="106.36" as="geometry" />
        </mxCell>
        <mxCell id="IVJkkFhH39mO2WbUyXx4-17" value="Repositories" style="text;align=center;fontStyle=1;verticalAlign=middle;spacingLeft=3;spacingRight=3;strokeColor=none;rotatable=0;points=[[0,0.5],[1,0.5]];portConstraint=eastwest;" vertex="1" parent="1">
          <mxGeometry x="230" y="586.36" width="80" height="26" as="geometry" />
        </mxCell>
        <mxCell id="IVJkkFhH39mO2WbUyXx4-19" value="" style="shape=folder;fontStyle=1;spacingTop=10;tabWidth=140;tabHeight=20;tabPosition=left;html=1;" vertex="1" parent="1">
          <mxGeometry x="215" y="730" width="180" height="106.36" as="geometry" />
        </mxCell>
        <mxCell id="IVJkkFhH39mO2WbUyXx4-20" value="Models" style="text;align=center;fontStyle=1;verticalAlign=middle;spacingLeft=3;spacingRight=3;strokeColor=none;rotatable=0;points=[[0,0.5],[1,0.5]];portConstraint=eastwest;" vertex="1" parent="1">
          <mxGeometry x="215" y="756.36" width="80" height="26" as="geometry" />
        </mxCell>
        <mxCell id="IVJkkFhH39mO2WbUyXx4-21" value="" style="shape=folder;fontStyle=1;spacingTop=10;tabWidth=140;tabHeight=20;tabPosition=left;html=1;" vertex="1" parent="1">
          <mxGeometry x="500" y="500" width="180" height="297.64" as="geometry" />
        </mxCell>
        <mxCell id="IVJkkFhH39mO2WbUyXx4-22" value="Utilities" style="text;align=center;fontStyle=1;verticalAlign=middle;spacingLeft=3;spacingRight=3;strokeColor=none;rotatable=0;points=[[0,0.5],[1,0.5]];portConstraint=eastwest;" vertex="1" parent="1">
          <mxGeometry x="510" y="537" width="80" height="26" as="geometry" />
        </mxCell>
        <mxCell id="IVJkkFhH39mO2WbUyXx4-23" value="Controllers" style="text;align=center;fontStyle=1;verticalAlign=middle;spacingLeft=3;spacingRight=3;strokeColor=none;rotatable=0;points=[[0,0.5],[1,0.5]];portConstraint=eastwest;" vertex="1" parent="1">
          <mxGeometry x="170" y="154" width="80" height="26" as="geometry" />
        </mxCell>
        <mxCell id="6ovjWbltKUEzPYo_eKIN-4" style="edgeStyle=orthogonalEdgeStyle;rounded=0;orthogonalLoop=1;jettySize=auto;html=1;entryX=0;entryY=0.75;entryDx=0;entryDy=0;fontSize=9;endArrow=classic;endFill=1;" edge="1" parent="1" source="IVJkkFhH39mO2WbUyXx4-24" target="aO-DROX5QwgZsez97T3a-1">
          <mxGeometry relative="1" as="geometry" />
        </mxCell>
        <mxCell id="6ovjWbltKUEzPYo_eKIN-5" style="edgeStyle=orthogonalEdgeStyle;rounded=0;orthogonalLoop=1;jettySize=auto;html=1;exitX=1;exitY=0.5;exitDx=0;exitDy=0;fontSize=9;endArrow=classic;endFill=1;" edge="1" parent="1" source="IVJkkFhH39mO2WbUyXx4-24" target="6ovjWbltKUEzPYo_eKIN-1">
          <mxGeometry relative="1" as="geometry">
            <Array as="points">
              <mxPoint x="285" y="300" />
              <mxPoint x="595" y="300" />
            </Array>
          </mxGeometry>
        </mxCell>
        <mxCell id="IVJkkFhH39mO2WbUyXx4-24" value="&lt;b&gt;&lt;font style=&quot;font-size: 9px&quot;&gt;IntershipControllers&lt;/font&gt;&lt;/b&gt;" style="rounded=0;whiteSpace=wrap;html=1;" vertex="1" parent="1">
          <mxGeometry x="195" y="205" width="90" height="30" as="geometry" />
        </mxCell>
        <mxCell id="6ovjWbltKUEzPYo_eKIN-6" style="edgeStyle=orthogonalEdgeStyle;rounded=0;orthogonalLoop=1;jettySize=auto;html=1;exitX=0.5;exitY=1;exitDx=0;exitDy=0;entryX=0.75;entryY=0;entryDx=0;entryDy=0;fontSize=9;endArrow=classic;endFill=1;" edge="1" parent="1" source="aO-DROX5QwgZsez97T3a-1" target="aO-DROX5QwgZsez97T3a-2">
          <mxGeometry relative="1" as="geometry" />
        </mxCell>
        <mxCell id="6ovjWbltKUEzPYo_eKIN-8" style="edgeStyle=orthogonalEdgeStyle;rounded=0;orthogonalLoop=1;jettySize=auto;html=1;exitX=1;exitY=0.5;exitDx=0;exitDy=0;entryX=0;entryY=0.75;entryDx=0;entryDy=0;fontSize=9;endArrow=classic;endFill=1;" edge="1" parent="1" source="aO-DROX5QwgZsez97T3a-1" target="6ovjWbltKUEzPYo_eKIN-1">
          <mxGeometry relative="1" as="geometry" />
        </mxCell>
        <mxCell id="aO-DROX5QwgZsez97T3a-1" value="&lt;b&gt;&lt;font style=&quot;font-size: 9px&quot;&gt;IntershipServices&lt;/font&gt;&lt;/b&gt;" style="rounded=0;whiteSpace=wrap;html=1;" vertex="1" parent="1">
          <mxGeometry x="255" y="452.36" width="90" height="30" as="geometry" />
        </mxCell>
        <mxCell id="6ovjWbltKUEzPYo_eKIN-7" style="edgeStyle=orthogonalEdgeStyle;rounded=0;orthogonalLoop=1;jettySize=auto;html=1;exitX=0.5;exitY=1;exitDx=0;exitDy=0;entryX=0.75;entryY=0;entryDx=0;entryDy=0;fontSize=9;endArrow=classic;endFill=1;" edge="1" parent="1" source="aO-DROX5QwgZsez97T3a-2" target="aO-DROX5QwgZsez97T3a-3">
          <mxGeometry relative="1" as="geometry" />
        </mxCell>
        <mxCell id="6ovjWbltKUEzPYo_eKIN-9" style="edgeStyle=orthogonalEdgeStyle;rounded=0;orthogonalLoop=1;jettySize=auto;html=1;exitX=1;exitY=0.75;exitDx=0;exitDy=0;fontSize=9;endArrow=none;endFill=0;" edge="1" parent="1" source="aO-DROX5QwgZsez97T3a-2">
          <mxGeometry relative="1" as="geometry">
            <mxPoint x="450" y="640" as="targetPoint" />
          </mxGeometry>
        </mxCell>
        <mxCell id="aO-DROX5QwgZsez97T3a-2" value="&lt;b&gt;&lt;font style=&quot;font-size: 9px&quot;&gt;IntershipRepositories&lt;/font&gt;&lt;/b&gt;" style="rounded=0;whiteSpace=wrap;html=1;" vertex="1" parent="1">
          <mxGeometry x="260" y="612.36" width="90" height="30" as="geometry" />
        </mxCell>
        <mxCell id="6ovjWbltKUEzPYo_eKIN-11" style="edgeStyle=orthogonalEdgeStyle;rounded=0;orthogonalLoop=1;jettySize=auto;html=1;fontSize=9;endArrow=none;endFill=0;" edge="1" parent="1" source="aO-DROX5QwgZsez97T3a-3">
          <mxGeometry relative="1" as="geometry">
            <mxPoint x="450" y="640" as="targetPoint" />
          </mxGeometry>
        </mxCell>
        <mxCell id="aO-DROX5QwgZsez97T3a-3" value="&lt;b&gt;&lt;font style=&quot;font-size: 9px&quot;&gt;Intership&lt;/font&gt;&lt;/b&gt;" style="rounded=0;whiteSpace=wrap;html=1;" vertex="1" parent="1">
          <mxGeometry x="260" y="782.36" width="90" height="30" as="geometry" />
        </mxCell>
        <mxCell id="6ovjWbltKUEzPYo_eKIN-1" value="&lt;font size=&quot;1&quot;&gt;&lt;b&gt;Logger&lt;/b&gt;&lt;/font&gt;" style="rounded=0;whiteSpace=wrap;html=1;" vertex="1" parent="1">
          <mxGeometry x="550" y="620" width="90" height="30" as="geometry" />
        </mxCell>
        <mxCell id="6ovjWbltKUEzPYo_eKIN-12" value="1" style="text;html=1;strokeColor=none;fillColor=none;align=center;verticalAlign=middle;whiteSpace=wrap;rounded=0;fontSize=9;" vertex="1" parent="1">
          <mxGeometry x="210" y="240" width="30" height="10" as="geometry" />
        </mxCell>
        <mxCell id="6ovjWbltKUEzPYo_eKIN-13" value="1" style="text;html=1;strokeColor=none;fillColor=none;align=center;verticalAlign=middle;whiteSpace=wrap;rounded=0;fontSize=9;" vertex="1" parent="1">
          <mxGeometry x="290" y="235" width="30" height="10" as="geometry" />
        </mxCell>
        <mxCell id="6ovjWbltKUEzPYo_eKIN-14" value="1" style="text;html=1;strokeColor=none;fillColor=none;align=center;verticalAlign=middle;whiteSpace=wrap;rounded=0;fontSize=9;" vertex="1" parent="1">
          <mxGeometry x="230" y="452.36" width="30" height="10" as="geometry" />
        </mxCell>
        <mxCell id="6ovjWbltKUEzPYo_eKIN-15" value="1" style="text;html=1;strokeColor=none;fillColor=none;align=center;verticalAlign=middle;whiteSpace=wrap;rounded=0;fontSize=9;" vertex="1" parent="1">
          <mxGeometry x="300" y="490" width="30" height="10" as="geometry" />
        </mxCell>
        <mxCell id="6ovjWbltKUEzPYo_eKIN-16" value="1" style="text;html=1;strokeColor=none;fillColor=none;align=center;verticalAlign=middle;whiteSpace=wrap;rounded=0;fontSize=9;" vertex="1" parent="1">
          <mxGeometry x="345" y="452.36" width="30" height="10" as="geometry" />
        </mxCell>
        <mxCell id="6ovjWbltKUEzPYo_eKIN-17" value="1" style="text;html=1;strokeColor=none;fillColor=none;align=center;verticalAlign=middle;whiteSpace=wrap;rounded=0;fontSize=9;" vertex="1" parent="1">
          <mxGeometry x="330" y="594.36" width="30" height="10" as="geometry" />
        </mxCell>
        <mxCell id="6ovjWbltKUEzPYo_eKIN-18" value="1" style="text;html=1;strokeColor=none;fillColor=none;align=center;verticalAlign=middle;whiteSpace=wrap;rounded=0;fontSize=9;" vertex="1" parent="1">
          <mxGeometry x="345" y="622.36" width="30" height="10" as="geometry" />
        </mxCell>
        <mxCell id="6ovjWbltKUEzPYo_eKIN-19" value="1" style="text;html=1;strokeColor=none;fillColor=none;align=center;verticalAlign=middle;whiteSpace=wrap;rounded=0;fontSize=9;" vertex="1" parent="1">
          <mxGeometry x="300" y="643.82" width="30" height="10" as="geometry" />
        </mxCell>
        <mxCell id="6ovjWbltKUEzPYo_eKIN-20" value="n" style="text;html=1;strokeColor=none;fillColor=none;align=center;verticalAlign=middle;whiteSpace=wrap;rounded=0;fontSize=9;" vertex="1" parent="1">
          <mxGeometry x="290" y="764.36" width="30" height="10" as="geometry" />
        </mxCell>
        <mxCell id="6ovjWbltKUEzPYo_eKIN-21" value="1" style="text;html=1;strokeColor=none;fillColor=none;align=center;verticalAlign=middle;whiteSpace=wrap;rounded=0;fontSize=9;" vertex="1" parent="1">
          <mxGeometry x="350" y="782.36" width="30" height="10" as="geometry" />
        </mxCell>
        <mxCell id="6ovjWbltKUEzPYo_eKIN-22" value="1" style="text;html=1;strokeColor=none;fillColor=none;align=center;verticalAlign=middle;whiteSpace=wrap;rounded=0;fontSize=9;" vertex="1" parent="1">
          <mxGeometry x="510" y="650" width="30" height="10" as="geometry" />
        </mxCell>
      </root>
    </mxGraphModel>
  </diagram>
  <diagram id="kQQZxqbdL938aEJCrzHx" name="Biểu đồ chi tiết gói Models">
    <mxGraphModel dx="898" dy="503" grid="1" gridSize="10" guides="1" tooltips="1" connect="1" arrows="1" fold="1" page="1" pageScale="1" pageWidth="850" pageHeight="1100" math="0" shadow="0">
      <root>
        <mxCell id="0" />
        <mxCell id="1" parent="0" />
        <mxCell id="V0dqJAUxhvFOzyD6VpIt-1" value="pkg models" style="shape=umlFrame;whiteSpace=wrap;html=1;fontSize=9;" vertex="1" parent="1">
          <mxGeometry x="90" y="20" width="620" height="560" as="geometry" />
        </mxCell>
        <mxCell id="V0dqJAUxhvFOzyD6VpIt-19" style="edgeStyle=orthogonalEdgeStyle;rounded=0;orthogonalLoop=1;jettySize=auto;html=1;entryX=0.5;entryY=0;entryDx=0;entryDy=0;fontSize=9;endArrow=block;endFill=0;" edge="1" parent="1" source="V0dqJAUxhvFOzyD6VpIt-2" target="V0dqJAUxhvFOzyD6VpIt-6">
          <mxGeometry relative="1" as="geometry" />
        </mxCell>
        <mxCell id="V0dqJAUxhvFOzyD6VpIt-2" value="Admin" style="rounded=0;whiteSpace=wrap;html=1;fontSize=9;" vertex="1" parent="1">
          <mxGeometry x="150" y="80" width="80" height="40" as="geometry" />
        </mxCell>
        <mxCell id="V0dqJAUxhvFOzyD6VpIt-3" value="Notification" style="rounded=0;whiteSpace=wrap;html=1;fontSize=9;" vertex="1" parent="1">
          <mxGeometry x="270" y="40" width="60" height="20" as="geometry" />
        </mxCell>
        <mxCell id="V0dqJAUxhvFOzyD6VpIt-4" value="Statistic" style="rounded=0;whiteSpace=wrap;html=1;fontSize=9;" vertex="1" parent="1">
          <mxGeometry x="270" y="70" width="60" height="20" as="geometry" />
        </mxCell>
        <mxCell id="V0dqJAUxhvFOzyD6VpIt-5" value="News" style="rounded=0;whiteSpace=wrap;html=1;fontSize=9;" vertex="1" parent="1">
          <mxGeometry x="270" y="100" width="60" height="20" as="geometry" />
        </mxCell>
        <mxCell id="V0dqJAUxhvFOzyD6VpIt-6" value="User" style="rounded=0;whiteSpace=wrap;html=1;fontSize=9;" vertex="1" parent="1">
          <mxGeometry x="150" y="190" width="80" height="40" as="geometry" />
        </mxCell>
        <mxCell id="V0dqJAUxhvFOzyD6VpIt-21" style="edgeStyle=orthogonalEdgeStyle;rounded=0;orthogonalLoop=1;jettySize=auto;html=1;exitX=0.5;exitY=0;exitDx=0;exitDy=0;fontSize=9;endArrow=block;endFill=0;" edge="1" parent="1" source="V0dqJAUxhvFOzyD6VpIt-7" target="V0dqJAUxhvFOzyD6VpIt-6">
          <mxGeometry relative="1" as="geometry" />
        </mxCell>
        <mxCell id="V0dqJAUxhvFOzyD6VpIt-28" style="edgeStyle=orthogonalEdgeStyle;rounded=0;orthogonalLoop=1;jettySize=auto;html=1;exitX=0.5;exitY=1;exitDx=0;exitDy=0;entryX=0;entryY=0.5;entryDx=0;entryDy=0;fontSize=9;endArrow=diamondThin;endFill=0;" edge="1" parent="1" source="V0dqJAUxhvFOzyD6VpIt-7" target="V0dqJAUxhvFOzyD6VpIt-18">
          <mxGeometry relative="1" as="geometry" />
        </mxCell>
        <mxCell id="V0dqJAUxhvFOzyD6VpIt-7" value="Teacher" style="rounded=0;whiteSpace=wrap;html=1;fontSize=9;" vertex="1" parent="1">
          <mxGeometry x="150" y="300" width="80" height="40" as="geometry" />
        </mxCell>
        <mxCell id="V0dqJAUxhvFOzyD6VpIt-30" style="edgeStyle=orthogonalEdgeStyle;rounded=0;orthogonalLoop=1;jettySize=auto;html=1;exitX=0.25;exitY=1;exitDx=0;exitDy=0;entryX=1;entryY=0.5;entryDx=0;entryDy=0;fontSize=9;endArrow=none;endFill=0;" edge="1" parent="1" source="V0dqJAUxhvFOzyD6VpIt-8" target="V0dqJAUxhvFOzyD6VpIt-7">
          <mxGeometry relative="1" as="geometry" />
        </mxCell>
        <mxCell id="V0dqJAUxhvFOzyD6VpIt-8" value="Message" style="rounded=0;whiteSpace=wrap;html=1;fontSize=9;" vertex="1" parent="1">
          <mxGeometry x="260" y="260" width="80" height="40" as="geometry" />
        </mxCell>
        <mxCell id="V0dqJAUxhvFOzyD6VpIt-31" style="edgeStyle=orthogonalEdgeStyle;rounded=0;orthogonalLoop=1;jettySize=auto;html=1;exitX=0.5;exitY=1;exitDx=0;exitDy=0;entryX=1;entryY=0.75;entryDx=0;entryDy=0;fontSize=9;endArrow=none;endFill=0;" edge="1" parent="1" source="V0dqJAUxhvFOzyD6VpIt-9" target="V0dqJAUxhvFOzyD6VpIt-7">
          <mxGeometry relative="1" as="geometry" />
        </mxCell>
        <mxCell id="V0dqJAUxhvFOzyD6VpIt-9" value="Group" style="rounded=0;whiteSpace=wrap;html=1;fontSize=9;" vertex="1" parent="1">
          <mxGeometry x="360" y="270" width="80" height="40" as="geometry" />
        </mxCell>
        <mxCell id="V0dqJAUxhvFOzyD6VpIt-10" value="StudentClass" style="rounded=0;whiteSpace=wrap;html=1;fontSize=9;" vertex="1" parent="1">
          <mxGeometry x="400" y="50" width="80" height="40" as="geometry" />
        </mxCell>
        <mxCell id="V0dqJAUxhvFOzyD6VpIt-22" style="edgeStyle=orthogonalEdgeStyle;rounded=0;orthogonalLoop=1;jettySize=auto;html=1;fontSize=9;endArrow=block;endFill=0;" edge="1" parent="1" source="V0dqJAUxhvFOzyD6VpIt-11" target="V0dqJAUxhvFOzyD6VpIt-6">
          <mxGeometry relative="1" as="geometry" />
        </mxCell>
        <mxCell id="V0dqJAUxhvFOzyD6VpIt-24" style="edgeStyle=orthogonalEdgeStyle;rounded=0;orthogonalLoop=1;jettySize=auto;html=1;exitX=0.5;exitY=0;exitDx=0;exitDy=0;entryX=0.5;entryY=1;entryDx=0;entryDy=0;fontSize=9;endArrow=diamondThin;endFill=1;" edge="1" parent="1" source="V0dqJAUxhvFOzyD6VpIt-11" target="V0dqJAUxhvFOzyD6VpIt-10">
          <mxGeometry relative="1" as="geometry" />
        </mxCell>
        <mxCell id="V0dqJAUxhvFOzyD6VpIt-25" style="edgeStyle=orthogonalEdgeStyle;rounded=0;orthogonalLoop=1;jettySize=auto;html=1;exitX=1;exitY=0.5;exitDx=0;exitDy=0;fontSize=9;endArrow=diamondThin;endFill=0;" edge="1" parent="1" source="V0dqJAUxhvFOzyD6VpIt-11" target="V0dqJAUxhvFOzyD6VpIt-13">
          <mxGeometry relative="1" as="geometry" />
        </mxCell>
        <mxCell id="V0dqJAUxhvFOzyD6VpIt-27" style="edgeStyle=orthogonalEdgeStyle;rounded=0;orthogonalLoop=1;jettySize=auto;html=1;exitX=0.25;exitY=1;exitDx=0;exitDy=0;entryX=0.5;entryY=0;entryDx=0;entryDy=0;fontSize=9;endArrow=diamondThin;endFill=0;" edge="1" parent="1" source="V0dqJAUxhvFOzyD6VpIt-11" target="V0dqJAUxhvFOzyD6VpIt-9">
          <mxGeometry relative="1" as="geometry" />
        </mxCell>
        <mxCell id="V0dqJAUxhvFOzyD6VpIt-29" style="edgeStyle=orthogonalEdgeStyle;rounded=0;orthogonalLoop=1;jettySize=auto;html=1;exitX=0;exitY=0.75;exitDx=0;exitDy=0;entryX=0.5;entryY=0;entryDx=0;entryDy=0;fontSize=9;endArrow=none;endFill=0;" edge="1" parent="1" source="V0dqJAUxhvFOzyD6VpIt-11" target="V0dqJAUxhvFOzyD6VpIt-8">
          <mxGeometry relative="1" as="geometry" />
        </mxCell>
        <mxCell id="V0dqJAUxhvFOzyD6VpIt-32" style="edgeStyle=orthogonalEdgeStyle;rounded=0;orthogonalLoop=1;jettySize=auto;html=1;exitX=0.75;exitY=1;exitDx=0;exitDy=0;entryX=0.5;entryY=0;entryDx=0;entryDy=0;fontSize=9;endArrow=none;endFill=0;" edge="1" parent="1" source="V0dqJAUxhvFOzyD6VpIt-11" target="V0dqJAUxhvFOzyD6VpIt-14">
          <mxGeometry relative="1" as="geometry" />
        </mxCell>
        <mxCell id="V0dqJAUxhvFOzyD6VpIt-11" value="Student" style="rounded=0;whiteSpace=wrap;html=1;fontSize=9;" vertex="1" parent="1">
          <mxGeometry x="400" y="190" width="80" height="40" as="geometry" />
        </mxCell>
        <mxCell id="V0dqJAUxhvFOzyD6VpIt-39" style="edgeStyle=orthogonalEdgeStyle;rounded=0;orthogonalLoop=1;jettySize=auto;html=1;exitX=0.5;exitY=1;exitDx=0;exitDy=0;entryX=0.5;entryY=0;entryDx=0;entryDy=0;fontSize=9;endArrow=none;endFill=0;" edge="1" parent="1" source="V0dqJAUxhvFOzyD6VpIt-12" target="V0dqJAUxhvFOzyD6VpIt-13">
          <mxGeometry relative="1" as="geometry" />
        </mxCell>
        <mxCell id="V0dqJAUxhvFOzyD6VpIt-12" value="Semester" style="rounded=0;whiteSpace=wrap;html=1;fontSize=9;" vertex="1" parent="1">
          <mxGeometry x="560" y="40" width="80" height="40" as="geometry" />
        </mxCell>
        <mxCell id="V0dqJAUxhvFOzyD6VpIt-40" style="edgeStyle=orthogonalEdgeStyle;rounded=0;orthogonalLoop=1;jettySize=auto;html=1;exitX=1;exitY=0.5;exitDx=0;exitDy=0;entryX=0.75;entryY=0;entryDx=0;entryDy=0;fontSize=9;endArrow=none;endFill=0;" edge="1" parent="1" source="V0dqJAUxhvFOzyD6VpIt-13" target="V0dqJAUxhvFOzyD6VpIt-15">
          <mxGeometry relative="1" as="geometry" />
        </mxCell>
        <mxCell id="V0dqJAUxhvFOzyD6VpIt-13" value="LearningClass" style="rounded=0;whiteSpace=wrap;html=1;fontSize=9;" vertex="1" parent="1">
          <mxGeometry x="560" y="190" width="80" height="40" as="geometry" />
        </mxCell>
        <mxCell id="V0dqJAUxhvFOzyD6VpIt-33" style="edgeStyle=orthogonalEdgeStyle;rounded=0;orthogonalLoop=1;jettySize=auto;html=1;exitX=0.5;exitY=1;exitDx=0;exitDy=0;entryX=0;entryY=0.5;entryDx=0;entryDy=0;fontSize=9;endArrow=none;endFill=0;" edge="1" parent="1" source="V0dqJAUxhvFOzyD6VpIt-14" target="V0dqJAUxhvFOzyD6VpIt-17">
          <mxGeometry relative="1" as="geometry" />
        </mxCell>
        <mxCell id="V0dqJAUxhvFOzyD6VpIt-34" style="edgeStyle=orthogonalEdgeStyle;rounded=0;orthogonalLoop=1;jettySize=auto;html=1;exitX=0.75;exitY=1;exitDx=0;exitDy=0;entryX=0;entryY=0.5;entryDx=0;entryDy=0;fontSize=9;endArrow=none;endFill=0;" edge="1" parent="1" source="V0dqJAUxhvFOzyD6VpIt-14" target="V0dqJAUxhvFOzyD6VpIt-16">
          <mxGeometry relative="1" as="geometry" />
        </mxCell>
        <mxCell id="V0dqJAUxhvFOzyD6VpIt-41" style="edgeStyle=orthogonalEdgeStyle;rounded=0;orthogonalLoop=1;jettySize=auto;html=1;exitX=1;exitY=0.5;exitDx=0;exitDy=0;entryX=0.5;entryY=1;entryDx=0;entryDy=0;fontSize=9;endArrow=none;endFill=0;" edge="1" parent="1" source="V0dqJAUxhvFOzyD6VpIt-14" target="V0dqJAUxhvFOzyD6VpIt-13">
          <mxGeometry relative="1" as="geometry" />
        </mxCell>
        <mxCell id="V0dqJAUxhvFOzyD6VpIt-14" value="Internship" style="rounded=0;whiteSpace=wrap;html=1;fontSize=9;" vertex="1" parent="1">
          <mxGeometry x="480" y="320" width="80" height="40" as="geometry" />
        </mxCell>
        <mxCell id="V0dqJAUxhvFOzyD6VpIt-15" value="Subject" style="rounded=0;whiteSpace=wrap;html=1;fontSize=9;" vertex="1" parent="1">
          <mxGeometry x="610" y="300" width="80" height="40" as="geometry" />
        </mxCell>
        <mxCell id="V0dqJAUxhvFOzyD6VpIt-35" style="edgeStyle=orthogonalEdgeStyle;rounded=0;orthogonalLoop=1;jettySize=auto;html=1;exitX=0.75;exitY=0;exitDx=0;exitDy=0;entryX=0.322;entryY=1.029;entryDx=0;entryDy=0;entryPerimeter=0;fontSize=9;endArrow=none;endFill=0;" edge="1" parent="1" source="V0dqJAUxhvFOzyD6VpIt-16" target="V0dqJAUxhvFOzyD6VpIt-15">
          <mxGeometry relative="1" as="geometry" />
        </mxCell>
        <mxCell id="V0dqJAUxhvFOzyD6VpIt-51" style="edgeStyle=orthogonalEdgeStyle;rounded=0;orthogonalLoop=1;jettySize=auto;html=1;fontSize=9;endArrow=none;endFill=0;" edge="1" parent="1" source="V0dqJAUxhvFOzyD6VpIt-16" target="V0dqJAUxhvFOzyD6VpIt-17">
          <mxGeometry relative="1" as="geometry" />
        </mxCell>
        <mxCell id="V0dqJAUxhvFOzyD6VpIt-16" value="TrainingMajor" style="rounded=0;whiteSpace=wrap;html=1;fontSize=9;" vertex="1" parent="1">
          <mxGeometry x="570" y="390" width="80" height="40" as="geometry" />
        </mxCell>
        <mxCell id="V0dqJAUxhvFOzyD6VpIt-36" style="edgeStyle=orthogonalEdgeStyle;rounded=0;orthogonalLoop=1;jettySize=auto;html=1;exitX=1;exitY=0.5;exitDx=0;exitDy=0;entryX=0.75;entryY=1;entryDx=0;entryDy=0;fontSize=9;endArrow=none;endFill=0;" edge="1" parent="1" source="V0dqJAUxhvFOzyD6VpIt-17" target="V0dqJAUxhvFOzyD6VpIt-15">
          <mxGeometry relative="1" as="geometry" />
        </mxCell>
        <mxCell id="V0dqJAUxhvFOzyD6VpIt-17" value="Company" style="rounded=0;whiteSpace=wrap;html=1;fontSize=9;" vertex="1" parent="1">
          <mxGeometry x="570" y="490" width="80" height="40" as="geometry" />
        </mxCell>
        <mxCell id="V0dqJAUxhvFOzyD6VpIt-38" style="edgeStyle=orthogonalEdgeStyle;rounded=0;orthogonalLoop=1;jettySize=auto;html=1;exitX=0.5;exitY=1;exitDx=0;exitDy=0;entryX=0.922;entryY=1.057;entryDx=0;entryDy=0;entryPerimeter=0;fontSize=9;endArrow=none;endFill=0;" edge="1" parent="1" source="V0dqJAUxhvFOzyD6VpIt-18" target="V0dqJAUxhvFOzyD6VpIt-15">
          <mxGeometry relative="1" as="geometry">
            <Array as="points">
              <mxPoint x="390" y="540" />
              <mxPoint x="684" y="540" />
            </Array>
          </mxGeometry>
        </mxCell>
        <mxCell id="V0dqJAUxhvFOzyD6VpIt-18" value="Department" style="rounded=0;whiteSpace=wrap;html=1;fontSize=9;" vertex="1" parent="1">
          <mxGeometry x="350" y="430" width="80" height="40" as="geometry" />
        </mxCell>
        <mxCell id="V0dqJAUxhvFOzyD6VpIt-42" value="n" style="text;html=1;strokeColor=none;fillColor=none;align=center;verticalAlign=middle;whiteSpace=wrap;rounded=0;fontSize=9;" vertex="1" parent="1">
          <mxGeometry x="400" y="230" width="20" height="10" as="geometry" />
        </mxCell>
        <mxCell id="V0dqJAUxhvFOzyD6VpIt-43" value="1" style="text;html=1;strokeColor=none;fillColor=none;align=center;verticalAlign=middle;whiteSpace=wrap;rounded=0;fontSize=9;" vertex="1" parent="1">
          <mxGeometry x="400" y="260" width="20" height="10" as="geometry" />
        </mxCell>
        <mxCell id="V0dqJAUxhvFOzyD6VpIt-44" value="n" style="text;html=1;strokeColor=none;fillColor=none;align=center;verticalAlign=middle;whiteSpace=wrap;rounded=0;fontSize=9;" vertex="1" parent="1">
          <mxGeometry x="420" y="180" width="20" height="10" as="geometry" />
        </mxCell>
        <mxCell id="V0dqJAUxhvFOzyD6VpIt-45" value="n" style="text;html=1;strokeColor=none;fillColor=none;align=center;verticalAlign=middle;whiteSpace=wrap;rounded=0;fontSize=9;" vertex="1" parent="1">
          <mxGeometry x="480" y="200" width="20" height="10" as="geometry" />
        </mxCell>
        <mxCell id="V0dqJAUxhvFOzyD6VpIt-46" value="1" style="text;html=1;strokeColor=none;fillColor=none;align=center;verticalAlign=middle;whiteSpace=wrap;rounded=0;fontSize=9;" vertex="1" parent="1">
          <mxGeometry x="450" y="95" width="20" height="10" as="geometry" />
        </mxCell>
        <mxCell id="V0dqJAUxhvFOzyD6VpIt-47" value="1" style="text;html=1;strokeColor=none;fillColor=none;align=center;verticalAlign=middle;whiteSpace=wrap;rounded=0;fontSize=9;" vertex="1" parent="1">
          <mxGeometry x="540" y="200" width="20" height="10" as="geometry" />
        </mxCell>
        <mxCell id="V0dqJAUxhvFOzyD6VpIt-48" value="1" style="text;html=1;strokeColor=none;fillColor=none;align=center;verticalAlign=middle;whiteSpace=wrap;rounded=0;fontSize=9;" vertex="1" parent="1">
          <mxGeometry x="320" y="430" width="20" height="10" as="geometry" />
        </mxCell>
        <mxCell id="V0dqJAUxhvFOzyD6VpIt-49" value="n" style="text;html=1;strokeColor=none;fillColor=none;align=center;verticalAlign=middle;whiteSpace=wrap;rounded=0;fontSize=9;" vertex="1" parent="1">
          <mxGeometry x="170" y="350" width="20" height="10" as="geometry" />
        </mxCell>
        <mxCell id="V0dqJAUxhvFOzyD6VpIt-50" value="n" style="text;html=1;strokeColor=none;fillColor=none;align=center;verticalAlign=middle;whiteSpace=wrap;rounded=0;fontSize=9;" vertex="1" parent="1">
          <mxGeometry x="590" y="430" width="20" height="10" as="geometry" />
        </mxCell>
        <mxCell id="V0dqJAUxhvFOzyD6VpIt-54" value="n" style="text;html=1;strokeColor=none;fillColor=none;align=center;verticalAlign=middle;whiteSpace=wrap;rounded=0;fontSize=9;" vertex="1" parent="1">
          <mxGeometry x="610" y="480" width="20" height="10" as="geometry" />
        </mxCell>
      </root>
    </mxGraphModel>
  </diagram>
  <diagram id="ysfveiVlD8MhotLhxg_G" name="Biểu đồ chi tiết gói Repositories">
    <mxGraphModel dx="1123" dy="629" grid="1" gridSize="10" guides="1" tooltips="1" connect="1" arrows="1" fold="1" page="1" pageScale="1" pageWidth="850" pageHeight="1100" math="0" shadow="0">
      <root>
        <mxCell id="0" />
        <mxCell id="1" parent="0" />
        <mxCell id="h84b1W0mnr0vAHHCObpt-1" value="frame" style="shape=umlFrame;whiteSpace=wrap;html=1;fontSize=9;" vertex="1" parent="1">
          <mxGeometry x="115" y="30" width="415" height="680" as="geometry" />
        </mxCell>
        <mxCell id="h84b1W0mnr0vAHHCObpt-2" value="CompanyRepository" style="rounded=0;whiteSpace=wrap;html=1;fontSize=9;" vertex="1" parent="1">
          <mxGeometry x="160" y="80" width="120" height="40" as="geometry" />
        </mxCell>
        <mxCell id="h84b1W0mnr0vAHHCObpt-4" value="SubjectRepository" style="rounded=0;whiteSpace=wrap;html=1;fontSize=9;" vertex="1" parent="1">
          <mxGeometry x="160" y="160" width="120" height="40" as="geometry" />
        </mxCell>
        <mxCell id="h84b1W0mnr0vAHHCObpt-5" value="MessageRepository" style="rounded=0;whiteSpace=wrap;html=1;fontSize=9;" vertex="1" parent="1">
          <mxGeometry x="160" y="240" width="120" height="40" as="geometry" />
        </mxCell>
        <mxCell id="h84b1W0mnr0vAHHCObpt-6" value="StudentClassRepository" style="rounded=0;whiteSpace=wrap;html=1;fontSize=9;" vertex="1" parent="1">
          <mxGeometry x="160" y="320" width="120" height="40" as="geometry" />
        </mxCell>
        <mxCell id="h84b1W0mnr0vAHHCObpt-7" value="GroupRepository" style="rounded=0;whiteSpace=wrap;html=1;fontSize=9;" vertex="1" parent="1">
          <mxGeometry x="160" y="400" width="120" height="40" as="geometry" />
        </mxCell>
        <mxCell id="h84b1W0mnr0vAHHCObpt-8" value="StatisticRepository" style="rounded=0;whiteSpace=wrap;html=1;fontSize=9;" vertex="1" parent="1">
          <mxGeometry x="160" y="480" width="120" height="40" as="geometry" />
        </mxCell>
        <mxCell id="h84b1W0mnr0vAHHCObpt-9" value="LerningClassRepository" style="rounded=0;whiteSpace=wrap;html=1;fontSize=9;" vertex="1" parent="1">
          <mxGeometry x="160" y="560" width="120" height="40" as="geometry" />
        </mxCell>
        <mxCell id="h84b1W0mnr0vAHHCObpt-10" value="SemesterRepository" style="rounded=0;whiteSpace=wrap;html=1;fontSize=9;" vertex="1" parent="1">
          <mxGeometry x="160" y="640" width="120" height="40" as="geometry" />
        </mxCell>
        <mxCell id="h84b1W0mnr0vAHHCObpt-13" value="DepartmentRepository" style="rounded=0;whiteSpace=wrap;html=1;fontSize=9;" vertex="1" parent="1">
          <mxGeometry x="360" y="80" width="120" height="40" as="geometry" />
        </mxCell>
        <mxCell id="h84b1W0mnr0vAHHCObpt-14" value="IntershipRepository" style="rounded=0;whiteSpace=wrap;html=1;fontSize=9;" vertex="1" parent="1">
          <mxGeometry x="360" y="160" width="120" height="40" as="geometry" />
        </mxCell>
        <mxCell id="h84b1W0mnr0vAHHCObpt-15" value="NewsRepository" style="rounded=0;whiteSpace=wrap;html=1;fontSize=9;" vertex="1" parent="1">
          <mxGeometry x="360" y="240" width="120" height="40" as="geometry" />
        </mxCell>
        <mxCell id="h84b1W0mnr0vAHHCObpt-16" value="StudentRepository" style="rounded=0;whiteSpace=wrap;html=1;fontSize=9;" vertex="1" parent="1">
          <mxGeometry x="360" y="320" width="120" height="40" as="geometry" />
        </mxCell>
        <mxCell id="h84b1W0mnr0vAHHCObpt-17" value="NotificationRepository" style="rounded=0;whiteSpace=wrap;html=1;fontSize=9;" vertex="1" parent="1">
          <mxGeometry x="360" y="560" width="120" height="40" as="geometry" />
        </mxCell>
        <mxCell id="h84b1W0mnr0vAHHCObpt-18" value="TrainingMajorRepository" style="rounded=0;whiteSpace=wrap;html=1;fontSize=9;" vertex="1" parent="1">
          <mxGeometry x="360" y="640" width="120" height="40" as="geometry" />
        </mxCell>
        <mxCell id="h84b1W0mnr0vAHHCObpt-25" value="TeacherRepository" style="rounded=0;whiteSpace=wrap;html=1;fontSize=9;" vertex="1" parent="1">
          <mxGeometry x="360" y="400" width="120" height="40" as="geometry" />
        </mxCell>
        <mxCell id="h84b1W0mnr0vAHHCObpt-26" value="AdminRepository" style="rounded=0;whiteSpace=wrap;html=1;fontSize=9;" vertex="1" parent="1">
          <mxGeometry x="360" y="480" width="120" height="40" as="geometry" />
        </mxCell>
      </root>
    </mxGraphModel>
  </diagram>
  <diagram id="2iEzmLOngRhcflCwG6LJ" name="Biểu đồ chi tiết gói Services">
    <mxGraphModel dx="619" dy="347" grid="1" gridSize="10" guides="1" tooltips="1" connect="1" arrows="1" fold="1" page="1" pageScale="1" pageWidth="850" pageHeight="1100" math="0" shadow="0">
      <root>
        <mxCell id="0" />
        <mxCell id="1" parent="0" />
        <mxCell id="2ufg5GfuNJqHyGJaLRzq-1" value="frame" style="shape=umlFrame;whiteSpace=wrap;html=1;fontSize=9;" vertex="1" parent="1">
          <mxGeometry x="115" y="30" width="415" height="680" as="geometry" />
        </mxCell>
        <mxCell id="2ufg5GfuNJqHyGJaLRzq-2" value="CompanyServices" style="rounded=0;whiteSpace=wrap;html=1;fontSize=9;" vertex="1" parent="1">
          <mxGeometry x="160" y="80" width="120" height="40" as="geometry" />
        </mxCell>
        <mxCell id="2ufg5GfuNJqHyGJaLRzq-3" value="SubjectServices" style="rounded=0;whiteSpace=wrap;html=1;fontSize=9;" vertex="1" parent="1">
          <mxGeometry x="160" y="160" width="120" height="40" as="geometry" />
        </mxCell>
        <mxCell id="2ufg5GfuNJqHyGJaLRzq-4" value="MessageServices" style="rounded=0;whiteSpace=wrap;html=1;fontSize=9;" vertex="1" parent="1">
          <mxGeometry x="160" y="240" width="120" height="40" as="geometry" />
        </mxCell>
        <mxCell id="2ufg5GfuNJqHyGJaLRzq-5" value="StudentClassServices" style="rounded=0;whiteSpace=wrap;html=1;fontSize=9;" vertex="1" parent="1">
          <mxGeometry x="160" y="320" width="120" height="40" as="geometry" />
        </mxCell>
        <mxCell id="2ufg5GfuNJqHyGJaLRzq-6" value="GroupServices" style="rounded=0;whiteSpace=wrap;html=1;fontSize=9;" vertex="1" parent="1">
          <mxGeometry x="160" y="400" width="120" height="40" as="geometry" />
        </mxCell>
        <mxCell id="2ufg5GfuNJqHyGJaLRzq-7" value="StatisticServices" style="rounded=0;whiteSpace=wrap;html=1;fontSize=9;" vertex="1" parent="1">
          <mxGeometry x="160" y="480" width="120" height="40" as="geometry" />
        </mxCell>
        <mxCell id="2ufg5GfuNJqHyGJaLRzq-8" value="LerningClassServices" style="rounded=0;whiteSpace=wrap;html=1;fontSize=9;" vertex="1" parent="1">
          <mxGeometry x="160" y="560" width="120" height="40" as="geometry" />
        </mxCell>
        <mxCell id="2ufg5GfuNJqHyGJaLRzq-9" value="SemesterServices" style="rounded=0;whiteSpace=wrap;html=1;fontSize=9;" vertex="1" parent="1">
          <mxGeometry x="160" y="640" width="120" height="40" as="geometry" />
        </mxCell>
        <mxCell id="2ufg5GfuNJqHyGJaLRzq-10" value="DepartmentServices" style="rounded=0;whiteSpace=wrap;html=1;fontSize=9;" vertex="1" parent="1">
          <mxGeometry x="360" y="80" width="120" height="40" as="geometry" />
        </mxCell>
        <mxCell id="2ufg5GfuNJqHyGJaLRzq-11" value="IntershipServices" style="rounded=0;whiteSpace=wrap;html=1;fontSize=9;" vertex="1" parent="1">
          <mxGeometry x="360" y="160" width="120" height="40" as="geometry" />
        </mxCell>
        <mxCell id="2ufg5GfuNJqHyGJaLRzq-12" value="NewsServices" style="rounded=0;whiteSpace=wrap;html=1;fontSize=9;" vertex="1" parent="1">
          <mxGeometry x="360" y="240" width="120" height="40" as="geometry" />
        </mxCell>
        <mxCell id="2ufg5GfuNJqHyGJaLRzq-13" value="StudentServices" style="rounded=0;whiteSpace=wrap;html=1;fontSize=9;" vertex="1" parent="1">
          <mxGeometry x="360" y="320" width="120" height="40" as="geometry" />
        </mxCell>
        <mxCell id="2ufg5GfuNJqHyGJaLRzq-14" value="NotificationServices" style="rounded=0;whiteSpace=wrap;html=1;fontSize=9;" vertex="1" parent="1">
          <mxGeometry x="360" y="560" width="120" height="40" as="geometry" />
        </mxCell>
        <mxCell id="2ufg5GfuNJqHyGJaLRzq-15" value="TrainingMajorServices" style="rounded=0;whiteSpace=wrap;html=1;fontSize=9;" vertex="1" parent="1">
          <mxGeometry x="360" y="640" width="120" height="40" as="geometry" />
        </mxCell>
        <mxCell id="2ufg5GfuNJqHyGJaLRzq-16" value="TeacherServices" style="rounded=0;whiteSpace=wrap;html=1;fontSize=9;" vertex="1" parent="1">
          <mxGeometry x="360" y="400" width="120" height="40" as="geometry" />
        </mxCell>
        <mxCell id="2ufg5GfuNJqHyGJaLRzq-17" value="AdminServices" style="rounded=0;whiteSpace=wrap;html=1;fontSize=9;" vertex="1" parent="1">
          <mxGeometry x="360" y="480" width="120" height="40" as="geometry" />
        </mxCell>
      </root>
    </mxGraphModel>
  </diagram>
  <diagram id="IWv9iG_hbXJUTxNaxY3P" name="Biểu đồ chi tiết gói StudentInternshipManagement">
    <mxGraphModel dx="898" dy="503" grid="1" gridSize="10" guides="1" tooltips="1" connect="1" arrows="1" fold="1" page="1" pageScale="1" pageWidth="850" pageHeight="1100" math="0" shadow="0">
      <root>
        <mxCell id="0" />
        <mxCell id="1" parent="0" />
        <mxCell id="DDxXtIiHpvYFeMZRQJsT-1" value="frame" style="shape=umlFrame;whiteSpace=wrap;html=1;fontSize=9;" vertex="1" parent="1">
          <mxGeometry x="220" y="200" width="330" height="220" as="geometry" />
        </mxCell>
        <mxCell id="DDxXtIiHpvYFeMZRQJsT-2" value="Controller" style="shape=folder;fontStyle=1;spacingTop=10;tabWidth=40;tabHeight=14;tabPosition=left;html=1;fontSize=9;" vertex="1" parent="1">
          <mxGeometry x="240" y="250" width="130" height="100" as="geometry" />
        </mxCell>
        <mxCell id="DDxXtIiHpvYFeMZRQJsT-3" value="Views" style="shape=folder;fontStyle=1;spacingTop=10;tabWidth=40;tabHeight=14;tabPosition=left;html=1;fontSize=9;" vertex="1" parent="1">
          <mxGeometry x="400" y="250" width="140" height="100" as="geometry" />
        </mxCell>
      </root>
    </mxGraphModel>
  </diagram>
  <diagram id="OTfa8kMrdgAIdLam5zXb" name="Biểu đồ chi tiết gói Controllers">
    <mxGraphModel dx="898" dy="503" grid="1" gridSize="10" guides="1" tooltips="1" connect="1" arrows="1" fold="1" page="1" pageScale="1" pageWidth="850" pageHeight="1100" math="0" shadow="0">
      <root>
        <mxCell id="0" />
        <mxCell id="1" parent="0" />
        <mxCell id="RDMOgF-ecJh4JfXkMqI--1" value="frame" style="shape=umlFrame;whiteSpace=wrap;html=1;fontSize=9;" vertex="1" parent="1">
          <mxGeometry x="115" y="30" width="415" height="680" as="geometry" />
        </mxCell>
        <mxCell id="RDMOgF-ecJh4JfXkMqI--2" value="HomeController" style="rounded=0;whiteSpace=wrap;html=1;fontSize=9;" vertex="1" parent="1">
          <mxGeometry x="160" y="80" width="120" height="40" as="geometry" />
        </mxCell>
        <mxCell id="RDMOgF-ecJh4JfXkMqI--3" value="IntershipController" style="rounded=0;whiteSpace=wrap;html=1;fontSize=9;" vertex="1" parent="1">
          <mxGeometry x="160" y="160" width="120" height="40" as="geometry" />
        </mxCell>
        <mxCell id="RDMOgF-ecJh4JfXkMqI--4" value="StatisticController" style="rounded=0;whiteSpace=wrap;html=1;fontSize=9;" vertex="1" parent="1">
          <mxGeometry x="160" y="240" width="120" height="40" as="geometry" />
        </mxCell>
        <mxCell id="RDMOgF-ecJh4JfXkMqI--5" value="TeacherController" style="rounded=0;whiteSpace=wrap;html=1;fontSize=9;" vertex="1" parent="1">
          <mxGeometry x="160" y="320" width="120" height="40" as="geometry" />
        </mxCell>
        <mxCell id="RDMOgF-ecJh4JfXkMqI--6" value="AdminController" style="rounded=0;whiteSpace=wrap;html=1;fontSize=9;" vertex="1" parent="1">
          <mxGeometry x="160" y="400" width="120" height="40" as="geometry" />
        </mxCell>
        <mxCell id="RDMOgF-ecJh4JfXkMqI--7" value="LearningClassController" style="rounded=0;whiteSpace=wrap;html=1;fontSize=9;" vertex="1" parent="1">
          <mxGeometry x="160" y="480" width="120" height="40" as="geometry" />
        </mxCell>
        <mxCell id="RDMOgF-ecJh4JfXkMqI--8" value="SubjectClassServices" style="rounded=0;whiteSpace=wrap;html=1;fontSize=9;" vertex="1" parent="1">
          <mxGeometry x="160" y="560" width="120" height="40" as="geometry" />
        </mxCell>
        <mxCell id="RDMOgF-ecJh4JfXkMqI--9" value="AccountController" style="rounded=0;whiteSpace=wrap;html=1;fontSize=9;" vertex="1" parent="1">
          <mxGeometry x="160" y="640" width="120" height="40" as="geometry" />
        </mxCell>
        <mxCell id="RDMOgF-ecJh4JfXkMqI--10" value="DepartmentController" style="rounded=0;whiteSpace=wrap;html=1;fontSize=9;" vertex="1" parent="1">
          <mxGeometry x="360" y="80" width="120" height="40" as="geometry" />
        </mxCell>
        <mxCell id="RDMOgF-ecJh4JfXkMqI--11" value="ProfileServices" style="rounded=0;whiteSpace=wrap;html=1;fontSize=9;" vertex="1" parent="1">
          <mxGeometry x="360" y="160" width="120" height="40" as="geometry" />
        </mxCell>
        <mxCell id="RDMOgF-ecJh4JfXkMqI--12" value="CompanyServices" style="rounded=0;whiteSpace=wrap;html=1;fontSize=9;" vertex="1" parent="1">
          <mxGeometry x="360" y="240" width="120" height="40" as="geometry" />
        </mxCell>
        <mxCell id="RDMOgF-ecJh4JfXkMqI--13" value="StudentClassController" style="rounded=0;whiteSpace=wrap;html=1;fontSize=9;" vertex="1" parent="1">
          <mxGeometry x="360" y="320" width="120" height="40" as="geometry" />
        </mxCell>
        <mxCell id="RDMOgF-ecJh4JfXkMqI--14" value="StudentController" style="rounded=0;whiteSpace=wrap;html=1;fontSize=9;" vertex="1" parent="1">
          <mxGeometry x="360" y="560" width="120" height="40" as="geometry" />
        </mxCell>
        <mxCell id="RDMOgF-ecJh4JfXkMqI--15" value="NewsController" style="rounded=0;whiteSpace=wrap;html=1;fontSize=9;" vertex="1" parent="1">
          <mxGeometry x="360" y="640" width="120" height="40" as="geometry" />
        </mxCell>
        <mxCell id="RDMOgF-ecJh4JfXkMqI--16" value="GroupController" style="rounded=0;whiteSpace=wrap;html=1;fontSize=9;" vertex="1" parent="1">
          <mxGeometry x="360" y="400" width="120" height="40" as="geometry" />
        </mxCell>
        <mxCell id="RDMOgF-ecJh4JfXkMqI--17" value="SemesterController" style="rounded=0;whiteSpace=wrap;html=1;fontSize=9;" vertex="1" parent="1">
          <mxGeometry x="360" y="480" width="120" height="40" as="geometry" />
        </mxCell>
      </root>
    </mxGraphModel>
  </diagram>
  <diagram id="YYAkzyp_FOYuGiYQLxfc" name="Biểu đồ chi tiết gói Utilities">
    <mxGraphModel dx="898" dy="503" grid="1" gridSize="10" guides="1" tooltips="1" connect="1" arrows="1" fold="1" page="1" pageScale="1" pageWidth="850" pageHeight="1100" math="0" shadow="0">
      <root>
        <mxCell id="0" />
        <mxCell id="1" parent="0" />
        <mxCell id="ZkeQPI_TGw4J5BR2IEKK-1" value="frame" style="shape=umlFrame;whiteSpace=wrap;html=1;fontSize=9;" vertex="1" parent="1">
          <mxGeometry x="220" y="200" width="330" height="220" as="geometry" />
        </mxCell>
        <mxCell id="ZkeQPI_TGw4J5BR2IEKK-2" value="Logger" style="shape=folder;fontStyle=1;spacingTop=10;tabWidth=40;tabHeight=14;tabPosition=left;html=1;fontSize=9;" vertex="1" parent="1">
          <mxGeometry x="240" y="250" width="130" height="100" as="geometry" />
        </mxCell>
        <mxCell id="ZkeQPI_TGw4J5BR2IEKK-3" value="EmailSender" style="shape=folder;fontStyle=1;spacingTop=10;tabWidth=40;tabHeight=14;tabPosition=left;html=1;fontSize=9;" vertex="1" parent="1">
          <mxGeometry x="400" y="250" width="140" height="100" as="geometry" />
        </mxCell>
      </root>
    </mxGraphModel>
  </diagram>
</mxfile>
